<svg width="40" height="40" viewBox="0 0 40 40" fill="none" xmlns="http://www.w3.org/2000/svg">
<circle cx="20" cy="20" r="20" fill="#1433D6"/>
<mask id="path-2-inside-1_2102_104531" fill="white">
<path fill-rule="evenodd" clip-rule="evenodd" d="M22.3381 12.6407C20.9577 12.01 19.9986 10.6173 19.9986 9.00058C19.9986 7.9794 20.3812 7.0476 21.011 6.34074C20.9021 6.32732 20.7928 6.31514 20.6832 6.30422C20.4085 6.27685 20.1635 6.47742 20.1361 6.7522L20.1353 6.76132L20.1296 6.76097L20.13 6.75188C20.1371 6.47583 19.9191 6.24627 19.643 6.23914C19.4697 6.23466 19.2956 6.23333 19.1209 6.23519C18.9462 6.23705 18.7722 6.24209 18.5989 6.25026C18.3231 6.26327 18.11 6.49743 18.1231 6.77326L18.1236 6.78235L18.1179 6.78282L18.1169 6.77372C18.0837 6.49958 17.8345 6.30428 17.5604 6.3375C17.2129 6.3796 16.8693 6.43435 16.5299 6.50128C16.259 6.5547 16.0827 6.81764 16.1361 7.08857L16.138 7.09761L16.1326 7.09888L16.1302 7.08996C16.0568 6.82375 15.7815 6.66743 15.5153 6.74081C15.1785 6.83364 14.8467 6.93864 14.5203 7.05531C14.2603 7.14825 14.1248 7.43439 14.2178 7.69442L14.2209 7.70306L14.2155 7.70523L14.2118 7.69681C14.1 7.44436 13.8046 7.33041 13.5521 7.44231C13.2335 7.58352 12.921 7.73615 12.6149 7.89968C12.3713 8.02982 12.2794 8.33275 12.4095 8.57631L12.4139 8.58429L12.4087 8.58732L12.4039 8.57964C12.2564 8.34621 11.9475 8.27659 11.7141 8.42413C11.4201 8.60995 11.1332 8.80625 10.8539 9.01252C10.6318 9.17656 10.5847 9.48961 10.7487 9.71176L10.7541 9.71891L10.7493 9.72273L10.7435 9.71591C10.564 9.50612 10.2484 9.4816 10.0386 9.66115C9.77478 9.88689 9.51906 10.1221 9.27188 10.3662C9.07541 10.5603 9.07344 10.8768 9.26749 11.0733L9.27374 11.0795L9.26949 11.0841L9.26293 11.0782C9.05545 10.896 8.73953 10.9164 8.55731 11.1239C8.32852 11.3844 8.10868 11.6533 7.89827 11.93C7.73113 12.1498 7.77383 12.4635 7.99364 12.6306L8.00065 12.6359L7.99706 12.6409L7.9898 12.6361C7.75878 12.4848 7.44887 12.5495 7.29759 12.7805C7.10789 13.0702 6.92795 13.3672 6.75826 13.6709C6.62356 13.9119 6.70979 14.2165 6.95085 14.3512L6.95849 14.3554L6.95567 14.3609L6.94782 14.3572C6.69791 14.2397 6.40009 14.347 6.28261 14.5969C6.13545 14.91 5.99877 15.2291 5.87302 15.5539C5.77332 15.8114 5.90125 16.101 6.15876 16.2007L6.1669 16.2038L6.16491 16.2095L6.15664 16.2069C5.89279 16.1254 5.61285 16.2732 5.53138 16.5371C5.42944 16.8672 5.33853 17.2023 5.25911 17.542C5.19622 17.8108 5.36321 18.0798 5.6321 18.1427L5.64053 18.1446L5.63942 18.1502L5.63094 18.1487C5.35834 18.1046 5.10161 18.2899 5.05752 18.5625C5.00243 18.903 4.95874 19.2475 4.92686 19.5953C4.90166 19.8703 5.10416 20.1136 5.37915 20.1388L5.38763 20.1395L5.38731 20.145L5.37887 20.1448C5.1028 20.1384 4.87382 20.357 4.86741 20.633C4.8634 20.806 4.8623 20.9796 4.86416 21.1539C4.86601 21.3282 4.87082 21.5018 4.87851 21.6747C4.8908 21.9505 5.12439 22.1642 5.40026 22.1519L5.40869 22.1515L5.40913 22.157L5.40066 22.1578C5.12627 22.1889 4.92901 22.4365 4.96007 22.7109C4.99935 23.058 5.05036 23.4014 5.1127 23.7407C5.16259 24.0123 5.42321 24.192 5.69481 24.1421L5.70326 24.1405L5.70448 24.1461L5.6961 24.1481C5.42861 24.2168 5.26738 24.4892 5.33599 24.7567C5.42264 25.0945 5.52066 25.4276 5.62961 25.7555C5.71669 26.0176 5.99972 26.1594 6.26177 26.0723L6.26998 26.0695L6.27209 26.0752L6.26402 26.0784C6.00869 26.1836 5.88696 26.4759 5.99213 26.7312C6.12477 27.0532 6.26822 27.3694 6.42202 27.6792C6.54479 27.9266 6.84484 28.0276 7.09219 27.9048L7.09995 27.9008L7.1029 27.9063L7.09534 27.9106C6.8572 28.0504 6.77749 28.3568 6.91729 28.595C7.09342 28.895 7.27964 29.188 7.47548 29.4736C7.63164 29.7014 7.94286 29.7594 8.1706 29.6032L8.17777 29.5982L8.18146 29.6033L8.17456 29.6086C7.95836 29.7804 7.92236 30.095 8.09415 30.3112C8.3104 30.5833 8.53592 30.8474 8.77021 31.103C8.95682 31.3065 9.2731 31.3203 9.47665 31.1337L9.48308 31.1277L9.48743 31.1321L9.48131 31.1384C9.29149 31.339 9.3002 31.6555 9.50076 31.8453C9.75309 32.0841 10.0138 32.3138 10.2823 32.5339C10.4959 32.7089 10.8109 32.6777 10.9859 32.4641L10.9915 32.4571L10.9964 32.4609L10.9912 32.4681C10.8319 32.6937 10.8857 33.0057 11.1113 33.165C11.3949 33.3652 11.686 33.5554 11.9838 33.7349C12.2203 33.8774 12.5276 33.8012 12.6702 33.5647L12.6748 33.5569L12.68 33.5599L12.6759 33.5679C12.5509 33.8142 12.6493 34.1151 12.8956 34.24C13.2051 34.397 13.5208 34.5429 13.8424 34.6773C14.0971 34.7838 14.39 34.6636 14.4965 34.4088L14.5 34.4003L14.5054 34.4024L14.5025 34.4111C14.4151 34.673 14.5566 34.9562 14.8186 35.0436C15.1474 35.1533 15.4814 35.2512 15.82 35.3368C16.0877 35.4045 16.3596 35.2424 16.4273 34.9747L16.4295 34.9657L16.435 34.9668L16.4333 34.9759C16.3856 35.2479 16.5675 35.507 16.8395 35.5547C17.1802 35.6144 17.525 35.6618 17.8732 35.6965C18.148 35.7238 18.3929 35.5233 18.4203 35.2485L18.4211 35.2394L18.4268 35.2397L18.4265 35.2488C18.4194 35.5249 18.6374 35.7544 18.9134 35.7615C19.0868 35.766 19.2608 35.7674 19.4356 35.7655C19.6103 35.7636 19.7843 35.7586 19.9575 35.7504C20.2333 35.7374 20.4464 35.5033 20.4334 35.2274L20.4329 35.2183L20.4386 35.2179L20.4396 35.227C20.4728 35.5011 20.722 35.6964 20.9961 35.6632C21.3435 35.6211 21.6872 35.5663 22.0265 35.4994C22.2975 35.446 22.4738 35.183 22.4204 34.9121L22.4185 34.9031L22.4239 34.9018L22.4263 34.9107C22.4997 35.1769 22.775 35.3333 23.0412 35.2599C23.3779 35.167 23.7097 35.062 24.0362 34.9454C24.2962 34.8524 24.4316 34.5663 24.3387 34.3063L24.3355 34.2976L24.341 34.2955L24.3446 34.3039C24.4565 34.5563 24.7519 34.6703 25.0043 34.5584C25.3229 34.4172 25.6355 34.2645 25.9416 34.101C26.1851 33.9709 26.2771 33.6679 26.1469 33.4244L26.1426 33.4164L26.1478 33.4134L26.1525 33.421C26.3001 33.6545 26.6089 33.7241 26.8423 33.5765C27.1363 33.3907 27.4232 33.1944 27.7026 32.9882C27.9247 32.8241 27.9718 32.5111 27.8078 32.2889L27.8024 32.2818L27.8072 32.278L27.8129 32.2848C27.9925 32.4946 28.3081 32.5191 28.5179 32.3395C28.7817 32.1138 29.0374 31.8786 29.2846 31.6345C29.4811 31.4404 29.483 31.1238 29.289 30.9274L29.2827 30.9211L29.287 30.9166L29.2935 30.9225C29.501 31.1047 29.8169 31.0842 29.9991 30.8768C30.2279 30.6163 30.4478 30.3474 30.6582 30.0707C30.8253 29.8509 30.7826 29.5372 30.5628 29.3701L30.5558 29.3648L30.5594 29.3597L30.5667 29.3646C30.7977 29.5159 31.1076 29.4512 31.2589 29.2202C31.4486 28.9305 31.6285 28.6335 31.7982 28.3298C31.9329 28.0888 31.8467 27.7841 31.6056 27.6495L31.598 27.6453L31.6008 27.6398L31.6086 27.6435C31.8585 27.761 32.1564 27.6537 32.2738 27.4037C32.421 27.0907 32.5577 26.7715 32.6834 26.4468C32.7831 26.1892 32.6552 25.8997 32.3977 25.8L32.3896 25.7969L32.3915 25.7912L32.3998 25.7938C32.6637 25.8753 32.9436 25.7274 33.0251 25.4636C33.127 25.1334 33.2179 24.7983 33.2973 24.4587C33.3602 24.1898 33.1932 23.9209 32.9244 23.858L32.9159 23.8561L32.917 23.8505L32.9255 23.852C33.1981 23.896 33.4548 23.7108 33.4989 23.4382C33.554 23.0976 33.5977 22.7532 33.6296 22.4054C33.6548 22.1304 33.4523 21.8871 33.1773 21.8618L33.1688 21.8611L33.1691 21.8556L33.1776 21.8559C33.4537 21.8623 33.6826 21.6437 33.689 21.3676C33.6931 21.1947 33.6942 21.021 33.6923 20.8467C33.6904 20.6724 33.6856 20.4989 33.6779 20.326C33.6657 20.0502 33.4321 19.8365 33.1562 19.8488L33.1478 19.8492L33.1473 19.8437L33.1558 19.8428C33.4263 19.8122 33.6218 19.5712 33.5976 19.3016C33.0128 19.7405 32.286 20.0006 31.4986 20.0006C29.7091 20.0006 28.2334 18.6577 28.024 16.9248C27.3732 17.7051 26.4009 18.2006 25.3146 18.2006C23.3551 18.2006 21.7667 16.5888 21.7667 14.6006C21.7667 13.8777 21.9767 13.2047 22.3381 12.6407Z"/>
</mask>
<path fill-rule="evenodd" clip-rule="evenodd" d="M22.3381 12.6407C20.9577 12.01 19.9986 10.6173 19.9986 9.00058C19.9986 7.9794 20.3812 7.0476 21.011 6.34074C20.9021 6.32732 20.7928 6.31514 20.6832 6.30422C20.4085 6.27685 20.1635 6.47742 20.1361 6.7522L20.1353 6.76132L20.1296 6.76097L20.13 6.75188C20.1371 6.47583 19.9191 6.24627 19.643 6.23914C19.4697 6.23466 19.2956 6.23333 19.1209 6.23519C18.9462 6.23705 18.7722 6.24209 18.5989 6.25026C18.3231 6.26327 18.11 6.49743 18.1231 6.77326L18.1236 6.78235L18.1179 6.78282L18.1169 6.77372C18.0837 6.49958 17.8345 6.30428 17.5604 6.3375C17.2129 6.3796 16.8693 6.43435 16.5299 6.50128C16.259 6.5547 16.0827 6.81764 16.1361 7.08857L16.138 7.09761L16.1326 7.09888L16.1302 7.08996C16.0568 6.82375 15.7815 6.66743 15.5153 6.74081C15.1785 6.83364 14.8467 6.93864 14.5203 7.05531C14.2603 7.14825 14.1248 7.43439 14.2178 7.69442L14.2209 7.70306L14.2155 7.70523L14.2118 7.69681C14.1 7.44436 13.8046 7.33041 13.5521 7.44231C13.2335 7.58352 12.921 7.73615 12.6149 7.89968C12.3713 8.02982 12.2794 8.33275 12.4095 8.57631L12.4139 8.58429L12.4087 8.58732L12.4039 8.57964C12.2564 8.34621 11.9475 8.27659 11.7141 8.42413C11.4201 8.60995 11.1332 8.80625 10.8539 9.01252C10.6318 9.17656 10.5847 9.48961 10.7487 9.71176L10.7541 9.71891L10.7493 9.72273L10.7435 9.71591C10.564 9.50612 10.2484 9.4816 10.0386 9.66115C9.77478 9.88689 9.51906 10.1221 9.27188 10.3662C9.07541 10.5603 9.07344 10.8768 9.26749 11.0733L9.27374 11.0795L9.26949 11.0841L9.26293 11.0782C9.05545 10.896 8.73953 10.9164 8.55731 11.1239C8.32852 11.3844 8.10868 11.6533 7.89827 11.93C7.73113 12.1498 7.77383 12.4635 7.99364 12.6306L8.00065 12.6359L7.99706 12.6409L7.9898 12.6361C7.75878 12.4848 7.44887 12.5495 7.29759 12.7805C7.10789 13.0702 6.92795 13.3672 6.75826 13.6709C6.62356 13.9119 6.70979 14.2165 6.95085 14.3512L6.95849 14.3554L6.95567 14.3609L6.94782 14.3572C6.69791 14.2397 6.40009 14.347 6.28261 14.5969C6.13545 14.91 5.99877 15.2291 5.87302 15.5539C5.77332 15.8114 5.90125 16.101 6.15876 16.2007L6.1669 16.2038L6.16491 16.2095L6.15664 16.2069C5.89279 16.1254 5.61285 16.2732 5.53138 16.5371C5.42944 16.8672 5.33853 17.2023 5.25911 17.542C5.19622 17.8108 5.36321 18.0798 5.6321 18.1427L5.64053 18.1446L5.63942 18.1502L5.63094 18.1487C5.35834 18.1046 5.10161 18.2899 5.05752 18.5625C5.00243 18.903 4.95874 19.2475 4.92686 19.5953C4.90166 19.8703 5.10416 20.1136 5.37915 20.1388L5.38763 20.1395L5.38731 20.145L5.37887 20.1448C5.1028 20.1384 4.87382 20.357 4.86741 20.633C4.8634 20.806 4.8623 20.9796 4.86416 21.1539C4.86601 21.3282 4.87082 21.5018 4.87851 21.6747C4.8908 21.9505 5.12439 22.1642 5.40026 22.1519L5.40869 22.1515L5.40913 22.157L5.40066 22.1578C5.12627 22.1889 4.92901 22.4365 4.96007 22.7109C4.99935 23.058 5.05036 23.4014 5.1127 23.7407C5.16259 24.0123 5.42321 24.192 5.69481 24.1421L5.70326 24.1405L5.70448 24.1461L5.6961 24.1481C5.42861 24.2168 5.26738 24.4892 5.33599 24.7567C5.42264 25.0945 5.52066 25.4276 5.62961 25.7555C5.71669 26.0176 5.99972 26.1594 6.26177 26.0723L6.26998 26.0695L6.27209 26.0752L6.26402 26.0784C6.00869 26.1836 5.88696 26.4759 5.99213 26.7312C6.12477 27.0532 6.26822 27.3694 6.42202 27.6792C6.54479 27.9266 6.84484 28.0276 7.09219 27.9048L7.09995 27.9008L7.1029 27.9063L7.09534 27.9106C6.8572 28.0504 6.77749 28.3568 6.91729 28.595C7.09342 28.895 7.27964 29.188 7.47548 29.4736C7.63164 29.7014 7.94286 29.7594 8.1706 29.6032L8.17777 29.5982L8.18146 29.6033L8.17456 29.6086C7.95836 29.7804 7.92236 30.095 8.09415 30.3112C8.3104 30.5833 8.53592 30.8474 8.77021 31.103C8.95682 31.3065 9.2731 31.3203 9.47665 31.1337L9.48308 31.1277L9.48743 31.1321L9.48131 31.1384C9.29149 31.339 9.3002 31.6555 9.50076 31.8453C9.75309 32.0841 10.0138 32.3138 10.2823 32.5339C10.4959 32.7089 10.8109 32.6777 10.9859 32.4641L10.9915 32.4571L10.9964 32.4609L10.9912 32.4681C10.8319 32.6937 10.8857 33.0057 11.1113 33.165C11.3949 33.3652 11.686 33.5554 11.9838 33.7349C12.2203 33.8774 12.5276 33.8012 12.6702 33.5647L12.6748 33.5569L12.68 33.5599L12.6759 33.5679C12.5509 33.8142 12.6493 34.1151 12.8956 34.24C13.2051 34.397 13.5208 34.5429 13.8424 34.6773C14.0971 34.7838 14.39 34.6636 14.4965 34.4088L14.5 34.4003L14.5054 34.4024L14.5025 34.4111C14.4151 34.673 14.5566 34.9562 14.8186 35.0436C15.1474 35.1533 15.4814 35.2512 15.82 35.3368C16.0877 35.4045 16.3596 35.2424 16.4273 34.9747L16.4295 34.9657L16.435 34.9668L16.4333 34.9759C16.3856 35.2479 16.5675 35.507 16.8395 35.5547C17.1802 35.6144 17.525 35.6618 17.8732 35.6965C18.148 35.7238 18.3929 35.5233 18.4203 35.2485L18.4211 35.2394L18.4268 35.2397L18.4265 35.2488C18.4194 35.5249 18.6374 35.7544 18.9134 35.7615C19.0868 35.766 19.2608 35.7674 19.4356 35.7655C19.6103 35.7636 19.7843 35.7586 19.9575 35.7504C20.2333 35.7374 20.4464 35.5033 20.4334 35.2274L20.4329 35.2183L20.4386 35.2179L20.4396 35.227C20.4728 35.5011 20.722 35.6964 20.9961 35.6632C21.3435 35.6211 21.6872 35.5663 22.0265 35.4994C22.2975 35.446 22.4738 35.183 22.4204 34.9121L22.4185 34.9031L22.4239 34.9018L22.4263 34.9107C22.4997 35.1769 22.775 35.3333 23.0412 35.2599C23.3779 35.167 23.7097 35.062 24.0362 34.9454C24.2962 34.8524 24.4316 34.5663 24.3387 34.3063L24.3355 34.2976L24.341 34.2955L24.3446 34.3039C24.4565 34.5563 24.7519 34.6703 25.0043 34.5584C25.3229 34.4172 25.6355 34.2645 25.9416 34.101C26.1851 33.9709 26.2771 33.6679 26.1469 33.4244L26.1426 33.4164L26.1478 33.4134L26.1525 33.421C26.3001 33.6545 26.6089 33.7241 26.8423 33.5765C27.1363 33.3907 27.4232 33.1944 27.7026 32.9882C27.9247 32.8241 27.9718 32.5111 27.8078 32.2889L27.8024 32.2818L27.8072 32.278L27.8129 32.2848C27.9925 32.4946 28.3081 32.5191 28.5179 32.3395C28.7817 32.1138 29.0374 31.8786 29.2846 31.6345C29.4811 31.4404 29.483 31.1238 29.289 30.9274L29.2827 30.9211L29.287 30.9166L29.2935 30.9225C29.501 31.1047 29.8169 31.0842 29.9991 30.8768C30.2279 30.6163 30.4478 30.3474 30.6582 30.0707C30.8253 29.8509 30.7826 29.5372 30.5628 29.3701L30.5558 29.3648L30.5594 29.3597L30.5667 29.3646C30.7977 29.5159 31.1076 29.4512 31.2589 29.2202C31.4486 28.9305 31.6285 28.6335 31.7982 28.3298C31.9329 28.0888 31.8467 27.7841 31.6056 27.6495L31.598 27.6453L31.6008 27.6398L31.6086 27.6435C31.8585 27.761 32.1564 27.6537 32.2738 27.4037C32.421 27.0907 32.5577 26.7715 32.6834 26.4468C32.7831 26.1892 32.6552 25.8997 32.3977 25.8L32.3896 25.7969L32.3915 25.7912L32.3998 25.7938C32.6637 25.8753 32.9436 25.7274 33.0251 25.4636C33.127 25.1334 33.2179 24.7983 33.2973 24.4587C33.3602 24.1898 33.1932 23.9209 32.9244 23.858L32.9159 23.8561L32.917 23.8505L32.9255 23.852C33.1981 23.896 33.4548 23.7108 33.4989 23.4382C33.554 23.0976 33.5977 22.7532 33.6296 22.4054C33.6548 22.1304 33.4523 21.8871 33.1773 21.8618L33.1688 21.8611L33.1691 21.8556L33.1776 21.8559C33.4537 21.8623 33.6826 21.6437 33.689 21.3676C33.6931 21.1947 33.6942 21.021 33.6923 20.8467C33.6904 20.6724 33.6856 20.4989 33.6779 20.326C33.6657 20.0502 33.4321 19.8365 33.1562 19.8488L33.1478 19.8492L33.1473 19.8437L33.1558 19.8428C33.4263 19.8122 33.6218 19.5712 33.5976 19.3016C33.0128 19.7405 32.286 20.0006 31.4986 20.0006C29.7091 20.0006 28.2334 18.6577 28.024 16.9248C27.3732 17.7051 26.4009 18.2006 25.3146 18.2006C23.3551 18.2006 21.7667 16.5888 21.7667 14.6006C21.7667 13.8777 21.9767 13.2047 22.3381 12.6407Z" fill="#000C79"/>
<path d="M22.3381 12.6407L23.18 13.1802L23.8018 12.21L22.7536 11.7312L22.3381 12.6407ZM21.011 6.34074L21.7576 7.00596L23.0266 5.58165L21.1333 5.34826L21.011 6.34074ZM20.6832 6.30422L20.7824 5.30915L20.7824 5.30915L20.6832 6.30422ZM20.1361 6.7522L19.141 6.65308L19.1402 6.66206L20.1361 6.7522ZM20.1353 6.76132L20.0729 7.75938L21.0436 7.82007L21.1312 6.85146L20.1353 6.76132ZM20.1296 6.76097L19.1302 6.72627L19.0965 7.69832L20.0672 7.75902L20.1296 6.76097ZM20.13 6.75188L21.1294 6.78657L21.1296 6.77769L20.13 6.75188ZM19.643 6.23914L19.6688 5.23947L19.643 6.23914ZM19.1209 6.23519L19.1102 5.23525L19.1209 6.23519ZM18.5989 6.25026L18.5518 5.25137L18.5989 6.25026ZM18.1231 6.77326L17.1241 6.82038L17.1246 6.82924L18.1231 6.77326ZM18.1236 6.78235L18.2072 7.77884L19.1764 7.69746L19.122 6.72637L18.1236 6.78235ZM18.1179 6.78282L17.1241 6.89409L17.2323 7.8607L18.2016 7.77932L18.1179 6.78282ZM18.1169 6.77372L19.1107 6.66244L19.1096 6.65341L18.1169 6.77372ZM17.5604 6.3375L17.6807 7.33024V7.33024L17.5604 6.3375ZM16.5299 6.50128L16.3364 5.52017L16.3364 5.52017L16.5299 6.50128ZM16.1361 7.08857L15.155 7.28206L15.1568 7.2909L16.1361 7.08857ZM16.138 7.09761L16.3677 8.07085L17.314 7.84746L17.1173 6.89528L16.138 7.09761ZM16.1326 7.09888L15.1662 7.35591L15.4161 8.29553L16.3623 8.07213L16.1326 7.09888ZM16.1302 7.08996L17.0966 6.83292L17.0942 6.82421L16.1302 7.08996ZM15.5153 6.74081L15.2495 5.77677V5.77677L15.5153 6.74081ZM14.5203 7.05531L14.1837 6.11365L14.1837 6.11365L14.5203 7.05531ZM14.2178 7.69442L13.2761 8.031L13.2792 8.03946L14.2178 7.69442ZM14.2209 7.70306L14.5922 8.6316L15.495 8.27064L15.1595 7.35801L14.2209 7.70306ZM14.2155 7.70523L13.2977 8.1023L13.6838 8.99475L14.5867 8.63377L14.2155 7.70523ZM14.2118 7.69681L15.1297 7.29973L15.1261 7.29161L14.2118 7.69681ZM13.5521 7.44231L13.1469 6.52808L13.1469 6.52808L13.5521 7.44231ZM12.6149 7.89968L13.0862 8.78167L13.0862 8.78167L12.6149 7.89968ZM12.4095 8.57631L11.5275 9.04759L11.5318 9.05544L12.4095 8.57631ZM12.4139 8.58429L12.9171 9.44847L13.7577 8.959L13.2916 8.10515L12.4139 8.58429ZM12.4087 8.58732L11.5587 9.11408L12.0711 9.94102L12.9118 9.45151L12.4087 8.58732ZM12.4039 8.57964L13.254 8.05286L13.2492 8.04534L12.4039 8.57964ZM11.7141 8.42413L12.2484 9.26943L12.2484 9.26943L11.7141 8.42413ZM10.8539 9.01252L11.4479 9.81697L11.4479 9.81697L10.8539 9.01252ZM10.7487 9.71176L9.94421 10.3058L9.94945 10.3128L10.7487 9.71176ZM10.7541 9.71891L11.3766 10.5015L12.1381 9.89563L11.5533 9.1179L10.7541 9.71891ZM10.7493 9.72273L9.98388 10.3663L10.6102 11.1112L11.3718 10.5053L10.7493 9.72273ZM10.7435 9.71591L11.5089 9.07231L11.5033 9.06569L10.7435 9.71591ZM10.0386 9.66115L9.38833 8.9014L9.38833 8.9014L10.0386 9.66115ZM9.27188 10.3662L8.56917 9.65474L8.56917 9.65475L9.27188 10.3662ZM9.26749 11.0733L8.55598 11.776L8.56214 11.7822L9.26749 11.0733ZM9.27374 11.0795L10.0012 11.7656L10.6692 11.0574L9.97909 10.3707L9.27374 11.0795ZM9.26949 11.0841L8.60316 11.8297L9.32906 12.4784L9.99699 11.7702L9.26949 11.0841ZM9.26293 11.0782L9.92929 10.3325L9.92284 10.3268L9.26293 11.0782ZM8.55731 11.1239L9.30866 11.7838L8.55731 11.1239ZM7.89827 11.93L8.69429 12.5353L8.69429 12.5353L7.89827 11.93ZM7.99364 12.6306L7.38835 13.4267L7.39521 13.4318L7.99364 12.6306ZM8.00065 12.6359L8.81748 13.2127L9.3792 12.4174L8.59908 11.8347L8.00065 12.6359ZM7.99706 12.6409L7.44212 13.4728L8.25216 14.0132L8.81389 13.2178L7.99706 12.6409ZM7.9898 12.6361L8.54476 11.8042L8.53761 11.7995L7.9898 12.6361ZM7.29759 12.7805L6.46099 12.2327L6.46099 12.2327L7.29759 12.7805ZM6.75826 13.6709L7.63122 14.1586L7.63122 14.1586L6.75826 13.6709ZM6.95085 14.3512L6.46306 15.2242L6.47052 15.2283L6.95085 14.3512ZM6.95849 14.3554L7.84805 14.8123L8.29289 13.9461L7.43883 13.4783L6.95849 14.3554ZM6.95567 14.3609L6.52248 15.2622L7.40029 15.6841L7.84522 14.8178L6.95567 14.3609ZM6.94782 14.3572L7.38102 13.4558L7.37324 13.4522L6.94782 14.3572ZM6.28261 14.5969L5.37762 14.1715H5.37762L6.28261 14.5969ZM5.87302 15.5539L6.80557 15.915L6.80557 15.915L5.87302 15.5539ZM6.15876 16.2007L5.79769 17.1333L5.80567 17.1363L6.15876 16.2007ZM6.1669 16.2038L7.11148 16.5321L7.43119 15.6121L6.51999 15.2682L6.1669 16.2038ZM6.16491 16.2095L5.86188 17.1625L6.78985 17.4576L7.1095 16.5378L6.16491 16.2095ZM6.15664 16.2069L6.45969 15.2539L6.45168 15.2514L6.15664 16.2069ZM5.53138 16.5371L6.48686 16.8321L6.48686 16.8321L5.53138 16.5371ZM5.25911 17.542L6.23283 17.7697L6.23283 17.7697L5.25911 17.542ZM5.6321 18.1427L5.40435 19.1164L5.41266 19.1183L5.6321 18.1427ZM5.64053 18.1446L6.62157 18.3384L6.81034 17.3827L5.85997 17.169L5.64053 18.1446ZM5.63942 18.1502L5.47145 19.136L6.4317 19.2996L6.62047 18.344L5.63942 18.1502ZM5.63094 18.1487L5.79892 17.1629L5.79062 17.1616L5.63094 18.1487ZM5.05752 18.5625L6.04468 18.7222L6.04468 18.7222L5.05752 18.5625ZM4.92686 19.5953L5.92269 19.6866V19.6866L4.92686 19.5953ZM5.37915 20.1388L5.28788 21.1347L5.29623 21.1354L5.37915 20.1388ZM5.38763 20.1395L6.38599 20.1967L6.44169 19.2238L5.47055 19.143L5.38763 20.1395ZM5.38731 20.145L5.3558 21.1445L6.32998 21.1753L6.38568 20.2022L5.38731 20.145ZM5.37887 20.1448L5.41038 19.1452L5.40206 19.145L5.37887 20.1448ZM4.86741 20.633L5.86714 20.6562L4.86741 20.633ZM4.86416 21.1539L5.8641 21.1433L4.86416 21.1539ZM4.87851 21.6747L3.8795 21.7191L4.87851 21.6747ZM5.40026 22.1519L5.44475 23.151L5.45312 23.1505L5.40026 22.1519ZM5.40869 22.1515L6.40562 22.0731L6.32919 21.1013L5.35584 21.1529L5.40869 22.1515ZM5.40913 22.157L5.51333 23.1515L6.48245 23.05L6.40605 22.0786L5.40913 22.157ZM5.40066 22.1578L5.29645 21.1633L5.2882 21.1642L5.40066 22.1578ZM4.96007 22.7109L5.95372 22.5984L4.96007 22.7109ZM5.1127 23.7407L4.12915 23.9214H4.12915L5.1127 23.7407ZM5.69481 24.1421L5.87549 25.1257L5.88382 25.1241L5.69481 24.1421ZM5.70326 24.1405L6.67993 23.9258L6.47076 22.9744L5.51425 23.1585L5.70326 24.1405ZM5.70448 24.1461L5.94465 25.1168L6.89035 24.8828L6.68116 23.9313L5.70448 24.1461ZM5.6961 24.1481L5.45592 23.1774L5.44766 23.1795L5.6961 24.1481ZM5.33599 24.7567L6.30464 24.5083H6.30464L5.33599 24.7567ZM5.62961 25.7555L6.57859 25.4402L6.57859 25.4402L5.62961 25.7555ZM6.26177 26.0723L6.57712 27.0214L6.58518 27.0186L6.26177 26.0723ZM6.26998 26.0695L7.20743 25.7214L6.86832 24.8082L5.94657 25.1233L6.26998 26.0695ZM6.27209 26.0752L6.64514 27.003L7.54848 26.6398L7.20953 25.7271L6.27209 26.0752ZM6.26402 26.0784L5.89096 25.1506L5.88318 25.1538L6.26402 26.0784ZM5.99213 26.7312L6.91677 26.3503L6.91677 26.3503L5.99213 26.7312ZM6.42202 27.6792L5.52629 28.1238L5.52629 28.1238L6.42202 27.6792ZM7.09219 27.9048L7.53682 28.8005L7.54433 28.7967L7.09219 27.9048ZM7.09995 27.9008L7.97945 27.425L7.51615 26.5687L6.6478 27.0089L7.09995 27.9008ZM7.1029 27.9063L7.60188 28.7729L8.44587 28.2869L7.9824 27.4304L7.1029 27.9063ZM7.09534 27.9106L6.59634 27.044L6.58907 27.0483L7.09534 27.9106ZM6.91729 28.595L7.77967 28.0887L7.77967 28.0887L6.91729 28.595ZM7.47548 29.4736L6.65074 30.0391H6.65074L7.47548 29.4736ZM8.1706 29.6032L8.73614 30.428L8.74317 30.4231L8.1706 29.6032ZM8.17777 29.5982L8.98218 29.0042L8.40363 28.2208L7.6052 28.7784L8.17777 29.5982ZM8.18146 29.6033L8.79685 30.3915L9.56426 29.7923L8.98587 29.0092L8.18146 29.6033ZM8.17456 29.6086L7.55916 28.8204L7.55247 28.8257L8.17456 29.6086ZM8.09415 30.3112L8.87708 29.6891L8.87708 29.6891L8.09415 30.3112ZM8.77021 31.103L8.03309 31.7788L8.03309 31.7788L8.77021 31.103ZM9.47665 31.1337L10.1524 31.8708L10.1587 31.865L9.47665 31.1337ZM9.48308 31.1277L10.1959 30.4263L9.51303 29.7323L8.80102 30.3964L9.48308 31.1277ZM9.48743 31.1321L10.2077 31.8258L10.883 31.1247L10.2002 30.4307L9.48743 31.1321ZM9.48131 31.1384L8.76106 30.4447L8.75501 30.4511L9.48131 31.1384ZM9.50076 31.8453L8.81338 32.5716L8.81338 32.5716L9.50076 31.8453ZM10.2823 32.5339L10.9162 31.7604L10.9162 31.7604L10.2823 32.5339ZM10.9859 32.4641L11.7594 33.098L11.7649 33.0912L10.9859 32.4641ZM10.9915 32.4571L11.597 31.6613L10.8227 31.0722L10.2126 31.83L10.9915 32.4571ZM10.9964 32.4609L11.8083 33.0446L12.3765 32.2544L11.6019 31.665L10.9964 32.4609ZM10.9912 32.4681L10.1792 31.8843L10.1743 31.8914L10.9912 32.4681ZM11.1113 33.165L10.5345 33.9819L10.5345 33.9819L11.1113 33.165ZM11.9838 33.7349L12.5 32.8784L12.5 32.8784L11.9838 33.7349ZM12.6702 33.5647L13.5267 34.0809L13.5312 34.0733L12.6702 33.5647ZM12.6748 33.5569L13.1594 32.6822L12.3085 32.2108L11.8138 33.0483L12.6748 33.5569ZM12.68 33.5599L13.5678 34.0201L14.0155 33.1565L13.1647 32.6851L12.68 33.5599ZM12.6759 33.5679L11.788 33.1076L11.784 33.1156L12.6759 33.5679ZM12.8956 34.24L13.348 33.3482H13.3479L12.8956 34.24ZM13.8424 34.6773L13.4567 35.6L13.4567 35.6L13.8424 34.6773ZM14.4965 34.4088L15.4192 34.7945L15.4226 34.7862L14.4965 34.4088ZM14.5 34.4003L14.8511 33.464L13.9408 33.1226L13.5739 34.023L14.5 34.4003ZM14.5054 34.4024L15.4512 34.7273L15.7672 33.8075L14.8566 33.4661L14.5054 34.4024ZM14.5025 34.4111L13.5567 34.0862L13.5538 34.0947L14.5025 34.4111ZM14.8186 35.0436L15.135 34.095H15.135L14.8186 35.0436ZM15.82 35.3368L15.5749 36.3063L15.5749 36.3063L15.82 35.3368ZM16.4273 34.9747L17.3969 35.2198L17.399 35.211L16.4273 34.9747ZM16.4295 34.9657L16.6386 33.9878L15.6877 33.7845L15.4579 34.7293L16.4295 34.9657ZM16.435 34.9668L17.4183 35.1483L17.5948 34.1922L16.644 33.9889L16.435 34.9668ZM16.4333 34.9759L15.4498 34.7944L15.4483 34.8034L16.4333 34.9759ZM16.8395 35.5547L16.667 36.5397H16.667L16.8395 35.5547ZM17.8732 35.6965L17.9723 34.7014H17.9723L17.8732 35.6965ZM18.4203 35.2485L19.4154 35.3476L19.4162 35.3387L18.4203 35.2485ZM18.4211 35.2394L18.4836 34.2413L17.513 34.1806L17.4252 35.1491L18.4211 35.2394ZM18.4268 35.2397L19.4262 35.2744L19.46 34.3024L18.4892 34.2417L18.4268 35.2397ZM18.4265 35.2488L17.4271 35.2141L17.4268 35.223L18.4265 35.2488ZM18.9134 35.7615L18.8876 36.7612H18.8876L18.9134 35.7615ZM19.4356 35.7655L19.4249 34.7656H19.4249L19.4356 35.7655ZM19.9575 35.7504L20.0046 36.7493H20.0046L19.9575 35.7504ZM20.4334 35.2274L21.4323 35.1803L21.4318 35.1714L20.4334 35.2274ZM20.4329 35.2183L20.349 34.2219L19.38 34.3034L19.4345 35.2743L20.4329 35.2183ZM20.4386 35.2179L21.4323 35.1064L21.3239 34.1398L20.3547 34.2214L20.4386 35.2179ZM20.4396 35.227L19.4458 35.3384L19.4468 35.3473L20.4396 35.227ZM20.9961 35.6632L21.1164 36.6559H21.1164L20.9961 35.6632ZM22.0265 35.4994L22.22 36.4805H22.22L22.0265 35.4994ZM22.4204 34.9121L23.4015 34.7186L23.3996 34.7096L22.4204 34.9121ZM22.4185 34.9031L22.1886 33.9299L21.2423 34.1534L21.4392 35.1056L22.4185 34.9031ZM22.4239 34.9018L23.3903 34.6447L23.1403 33.705L22.194 33.9286L22.4239 34.9018ZM22.4263 34.9107L21.4598 35.1678L21.4622 35.1765L22.4263 34.9107ZM23.0412 35.2599L23.3069 36.2239H23.3069L23.0412 35.2599ZM24.0362 34.9454L24.3727 35.887L24.3727 35.887L24.0362 34.9454ZM24.3387 34.3063L25.2804 33.9697L25.2773 33.9612L24.3387 34.3063ZM24.3355 34.2976L23.9643 33.3691L23.0615 33.7301L23.3969 34.6427L24.3355 34.2976ZM24.341 34.2955L25.2588 33.8985L24.8727 33.0058L23.9697 33.3669L24.341 34.2955ZM24.3446 34.3039L23.4267 34.7008L23.4304 34.7091L24.3446 34.3039ZM25.0043 34.5584L25.4095 35.4726L25.4095 35.4726L25.0043 34.5584ZM25.9416 34.101L26.4128 34.983L26.4128 34.983L25.9416 34.101ZM26.1469 33.4244L27.0289 32.9531L27.0247 32.9454L26.1469 33.4244ZM26.1426 33.4164L25.6394 32.5522L24.7989 33.0416L25.2648 33.8954L26.1426 33.4164ZM26.1478 33.4134L26.9978 32.8867L26.4854 32.0596L25.6446 32.5492L26.1478 33.4134ZM26.1525 33.421L25.3025 33.9478L25.3072 33.9553L26.1525 33.421ZM26.8423 33.5765L26.3081 32.7312V32.7313L26.8423 33.5765ZM27.7026 32.9882L27.1085 32.1837L27.1085 32.1837L27.7026 32.9882ZM27.8078 32.2889L28.6122 31.6949L28.607 31.6879L27.8078 32.2889ZM27.8024 32.2818L27.18 31.499L26.4182 32.1048L27.0031 32.8828L27.8024 32.2818ZM27.8072 32.278L28.5725 31.6343L27.9464 30.8897L27.1849 31.4952L27.8072 32.278ZM27.8129 32.2848L27.0475 32.9284L27.0532 32.935L27.8129 32.2848ZM28.5179 32.3395L27.8677 31.5798H27.8677L28.5179 32.3395ZM29.2846 31.6345L28.5819 30.923L29.2846 31.6345ZM29.289 30.9274L30.0005 30.2246L29.9942 30.2184L29.289 30.9274ZM29.2827 30.9211L28.5551 30.2351L27.8872 30.9435L28.5774 31.6301L29.2827 30.9211ZM29.287 30.9166L29.9534 30.1711L29.2274 29.5221L28.5594 30.2306L29.287 30.9166ZM29.2935 30.9225L28.6271 31.6681L28.6336 31.6738L29.2935 30.9225ZM29.9991 30.8768L29.2478 30.2169L29.2478 30.2169L29.9991 30.8768ZM30.6582 30.0707L31.4542 30.676L31.4542 30.676L30.6582 30.0707ZM30.5628 29.3701L31.1681 28.574L31.1611 28.5688L30.5628 29.3701ZM30.5558 29.3648L29.7389 28.7881L29.1774 29.5835L29.9575 30.1661L30.5558 29.3648ZM30.5594 29.3597L31.1145 28.528L30.3042 27.9872L29.7424 28.783L30.5594 29.3597ZM30.5667 29.3646L30.0115 30.1964L30.0188 30.2012L30.5667 29.3646ZM31.2589 29.2202L32.0955 29.768L31.2589 29.2202ZM31.7982 28.3298L32.6712 28.8176L32.6712 28.8176L31.7982 28.3298ZM31.6056 27.6495L32.0934 26.7764L32.086 26.7724L31.6056 27.6495ZM31.598 27.6453L30.7085 27.1882L30.2634 28.0544L31.1175 28.5223L31.598 27.6453ZM31.6008 27.6398L32.0341 26.7385L31.1564 26.3165L30.7113 27.1827L31.6008 27.6398ZM31.6086 27.6435L31.1753 28.5448L31.1832 28.5485L31.6086 27.6435ZM32.2738 27.4037L31.3689 26.9783L31.3688 26.9783L32.2738 27.4037ZM32.6834 26.4468L31.7509 26.0857L31.7509 26.0857L32.6834 26.4468ZM32.3977 25.8L32.7588 24.8674L32.751 24.8645L32.3977 25.8ZM32.3896 25.7969L31.4449 25.4689L31.1257 26.3885L32.0362 26.7324L32.3896 25.7969ZM32.3915 25.7912L32.6946 24.8382L31.7663 24.543L31.4468 25.4632L32.3915 25.7912ZM32.3998 25.7938L32.0968 26.7468L32.1048 26.7493L32.3998 25.7938ZM33.0251 25.4636L33.9806 25.7586L33.9806 25.7586L33.0251 25.4636ZM33.2973 24.4587L32.3236 24.231L32.3236 24.231L33.2973 24.4587ZM32.9244 23.858L33.1521 22.8842L33.1436 22.8823L32.9244 23.858ZM32.9159 23.8561L31.9349 23.662L31.7458 24.6181L32.6967 24.8318L32.9159 23.8561ZM32.917 23.8505L33.0852 22.8648L32.1251 22.7009L31.936 23.6565L32.917 23.8505ZM32.9255 23.852L32.7573 24.8377L32.7658 24.8391L32.9255 23.852ZM33.4989 23.4382L34.4861 23.5979L34.4861 23.5979L33.4989 23.4382ZM33.6296 22.4054L34.6254 22.4967V22.4967L33.6296 22.4054ZM33.1773 21.8618L33.2686 20.866L33.2602 20.8653L33.1773 21.8618ZM33.1688 21.8611L32.1705 21.8037L32.1145 22.7769L33.0859 22.8577L33.1688 21.8611ZM33.1691 21.8556L33.2005 20.8561L32.2268 20.8255L32.1708 21.7982L33.1691 21.8556ZM33.1776 21.8559L33.1462 22.8554L33.1544 22.8556L33.1776 21.8559ZM33.689 21.3676L34.6888 21.3908V21.3908L33.689 21.3676ZM33.6923 20.8467L34.6922 20.8361L33.6923 20.8467ZM33.6779 20.326L32.6789 20.3705L33.6779 20.326ZM33.1562 19.8488L33.1117 18.8497L33.1035 18.8502L33.1562 19.8488ZM33.1478 19.8492L32.1509 19.9278L32.2274 20.8992L33.2005 20.8478L33.1478 19.8492ZM33.1473 19.8437L33.0431 18.8492L32.0738 18.9507L32.1504 19.9223L33.1473 19.8437ZM33.1558 19.8428L33.26 20.8374L33.2683 20.8365L33.1558 19.8428ZM33.5976 19.3016L34.5936 19.2122L34.4332 17.424L32.9973 18.5018L33.5976 19.3016ZM28.024 16.9248L29.0168 16.8048L28.7391 14.506L27.256 16.2843L28.024 16.9248ZM18.9986 9.00058C18.9986 11.023 20.1993 12.7629 21.9225 13.5503L22.7536 11.7312C21.7162 11.2571 20.9986 10.2116 20.9986 9.00058H18.9986ZM20.2643 5.67553C19.4777 6.55845 18.9986 7.72476 18.9986 9.00058H20.9986C20.9986 8.23404 21.2847 7.53674 21.7576 7.00596L20.2643 5.67553ZM21.1333 5.34826C21.0167 5.33388 20.8997 5.32084 20.7824 5.30915L20.5841 7.2993C20.686 7.30944 20.7875 7.32076 20.8886 7.33323L21.1333 5.34826ZM20.7824 5.30915C19.958 5.22703 19.2232 5.82873 19.1411 6.65308L21.1312 6.85132C21.1038 7.1261 20.8589 7.32667 20.5841 7.2993L20.7824 5.30915ZM19.1402 6.66206L19.1394 6.67119L21.1312 6.85146L21.1321 6.84234L19.1402 6.66206ZM20.1977 5.76327L20.1921 5.76292L20.0672 7.75902L20.0729 7.75938L20.1977 5.76327ZM21.129 6.79567L21.1294 6.78657L19.1306 6.71718L19.1302 6.72627L21.129 6.79567ZM21.1296 6.77769C21.151 5.94954 20.497 5.26086 19.6688 5.23947L19.6172 7.2388C19.3412 7.23168 19.1232 7.00211 19.1303 6.72606L21.1296 6.77769ZM19.6688 5.23947C19.4834 5.23468 19.2971 5.23326 19.1102 5.23525L19.1315 7.23513C19.2941 7.2334 19.456 7.23464 19.6172 7.2388L19.6688 5.23947ZM19.1102 5.23525C18.9233 5.23724 18.7372 5.24263 18.5518 5.25137L18.6461 7.24915C18.8071 7.24156 18.969 7.23687 19.1315 7.23513L19.1102 5.23525ZM18.5518 5.25137C17.7243 5.2904 17.0851 5.99287 17.1242 6.82038L19.1219 6.72615C19.135 7.00199 18.9219 7.23614 18.6461 7.24915L18.5518 5.25137ZM17.1246 6.82924L17.1251 6.83832L19.122 6.72637L19.1215 6.71729L17.1246 6.82924ZM18.0399 5.78585L18.0342 5.78633L18.2016 7.77932L18.2072 7.77884L18.0399 5.78585ZM19.1117 6.67155L19.1107 6.66245L17.1231 6.88499L17.1241 6.89409L19.1117 6.67155ZM19.1096 6.65341C19.01 5.831 18.2625 5.2451 17.4401 5.34476L17.6807 7.33024C17.4065 7.36346 17.1574 7.16816 17.1241 6.89402L19.1096 6.65341ZM17.4401 5.34476C17.068 5.38985 16.7 5.44848 16.3364 5.52017L16.7234 7.48238C17.0386 7.42022 17.3578 7.36936 17.6807 7.33024L17.4401 5.34476ZM16.3364 5.52017C15.5237 5.68046 14.9947 6.46927 15.155 7.28205L17.1172 6.89509C17.1706 7.16602 16.9943 7.42895 16.7234 7.48238L16.3364 5.52017ZM15.1568 7.2909L15.1587 7.29993L17.1173 6.89528L17.1154 6.88624L15.1568 7.2909ZM15.9082 6.12436L15.9028 6.12564L16.3623 8.07213L16.3677 8.07085L15.9082 6.12436ZM17.099 6.84186L17.0966 6.83293L15.1638 7.34698L15.1662 7.35591L17.099 6.84186ZM17.0942 6.82421C16.8741 6.02557 16.0482 5.55662 15.2495 5.77677L15.781 7.70485C15.5148 7.77824 15.2395 7.62192 15.1661 7.35571L17.0942 6.82421ZM15.2495 5.77677C14.8888 5.87622 14.5333 5.98869 14.1837 6.11365L14.8569 7.99697C15.1601 7.88859 15.4683 7.79107 15.781 7.70485L15.2495 5.77677ZM14.1837 6.11365C13.4036 6.39247 12.9973 7.25089 13.2761 8.03099L15.1594 7.35785C15.2524 7.61789 15.1169 7.90403 14.8569 7.99697L14.1837 6.11365ZM13.2792 8.03946L13.2823 8.0481L15.1595 7.35801L15.1563 7.34938L13.2792 8.03946ZM13.8497 6.77452L13.8443 6.77669L14.5867 8.63377L14.5922 8.6316L13.8497 6.77452ZM15.1333 7.30816L15.1296 7.29974L13.2941 8.09388L13.2977 8.1023L15.1333 7.30816ZM15.1261 7.29161C14.7904 6.53424 13.9043 6.1924 13.1469 6.52808L13.9573 8.35653C13.7049 8.46842 13.4095 8.35448 13.2976 8.10202L15.1261 7.29161ZM13.1469 6.52808C12.8058 6.67928 12.4712 6.84267 12.1436 7.01769L13.0862 8.78167C13.3707 8.62963 13.6613 8.48776 13.9573 8.35653L13.1469 6.52808ZM12.1436 7.01769C11.413 7.4081 11.1371 8.31691 11.5275 9.04757L13.2915 8.10504C13.4217 8.3486 13.3297 8.65154 13.0862 8.78167L12.1436 7.01769ZM11.5318 9.05544L11.5361 9.06342L13.2916 8.10515L13.2873 8.09718L11.5318 9.05544ZM11.9107 7.7201L11.9055 7.72314L12.9118 9.45151L12.9171 9.44847L11.9107 7.7201ZM13.2587 8.06056L13.2539 8.05288L11.5539 9.1064L11.5587 9.11408L13.2587 8.06056ZM13.2492 8.04534C12.8066 7.34508 11.8801 7.13621 11.1798 7.57884L12.2484 9.26943C12.015 9.41698 11.7062 9.34735 11.5586 9.11393L13.2492 8.04534ZM11.1798 7.57884C10.8654 7.7776 10.5585 7.98754 10.2599 8.20807L11.4479 9.81697C11.7079 9.62497 11.9749 9.4423 12.2484 9.26943L11.1798 7.57884ZM10.2599 8.20807C9.59345 8.70018 9.45214 9.63936 9.94424 10.3058L11.5531 9.11773C11.7172 9.33987 11.6701 9.65293 11.4479 9.81697L10.2599 8.20807ZM9.94945 10.3128L9.95482 10.3199L11.5533 9.1179L11.5479 9.11075L9.94945 10.3128ZM10.1315 8.93635L10.1267 8.94017L11.3718 10.5053L11.3766 10.5015L10.1315 8.93635ZM11.5146 9.07915L11.5089 9.07233L9.97816 10.3595L9.98388 10.3663L11.5146 9.07915ZM11.5033 9.06569C10.9646 8.4363 10.0177 8.36274 9.38833 8.9014L10.6888 10.4209C10.479 10.6004 10.1633 10.5759 9.98379 10.3661L11.5033 9.06569ZM9.38833 8.9014C9.10645 9.14265 8.83322 9.39395 8.56917 9.65474L9.97458 11.0777C10.2049 10.8502 10.4431 10.6311 10.6888 10.4209L9.38833 8.9014ZM8.56917 9.65475C7.97976 10.2369 7.97387 11.1866 8.55601 11.776L9.97897 10.3706C10.173 10.5671 10.1711 10.8837 9.97458 11.0777L8.56917 9.65475ZM8.56214 11.7822L8.56839 11.7884L9.97909 10.3707L9.97284 10.3645L8.56214 11.7822ZM8.54624 10.3934L8.54199 10.3979L9.99699 11.7702L10.0012 11.7656L8.54624 10.3934ZM9.93582 10.3384L9.92926 10.3325L8.5966 11.8238L8.60316 11.8297L9.93582 10.3384ZM9.92284 10.3268C9.3004 9.78016 8.35264 9.84157 7.80596 10.464L9.30866 11.7838C9.12643 11.9913 8.81051 12.0118 8.60303 11.8295L9.92284 10.3268ZM7.80596 10.464C7.56163 10.7422 7.32689 11.0293 7.10225 11.3247L8.69429 12.5353C8.89046 12.2773 9.0954 12.0266 9.30866 11.7838L7.80596 10.464ZM7.10225 11.3247C6.60083 11.9841 6.72893 12.9252 7.38837 13.4266L8.59892 11.8346C8.81873 12.0017 8.86143 12.3154 8.69429 12.5353L7.10225 11.3247ZM7.39521 13.4318L7.40222 13.437L8.59908 11.8347L8.59207 11.8294L7.39521 13.4318ZM7.18383 12.059L7.18024 12.0641L8.81389 13.2178L8.81748 13.2127L7.18383 12.059ZM8.552 11.8091L8.54474 11.8042L7.43486 13.468L7.44212 13.4728L8.552 11.8091ZM8.53761 11.7995C7.84454 11.3457 6.91481 11.5396 6.46099 12.2327L8.13419 13.3283C7.98292 13.5593 7.67301 13.624 7.44199 13.4727L8.53761 11.7995ZM6.46099 12.2327C6.25848 12.5419 6.06641 12.8589 5.88529 13.1831L7.63122 14.1586C7.78948 13.8754 7.95729 13.5985 8.13419 13.3283L6.46099 12.2327ZM5.88529 13.1831C5.4812 13.9063 5.73988 14.8201 6.46308 15.2242L7.43863 13.4783C7.67969 13.613 7.76592 13.9176 7.63122 14.1586L5.88529 13.1831ZM6.47052 15.2283L6.47816 15.2325L7.43883 13.4783L7.43119 13.4741L6.47052 15.2283ZM6.06894 13.8986L6.06611 13.9041L7.84522 14.8178L7.84805 14.8123L6.06894 13.8986ZM7.38885 13.4596L7.381 13.4558L6.51464 15.2585L6.52248 15.2622L7.38885 13.4596ZM7.37324 13.4522C6.62352 13.0997 5.73005 13.4218 5.37762 14.1715L7.18761 15.0224C7.07013 15.2723 6.7723 15.3796 6.5224 15.2621L7.37324 13.4522ZM5.37762 14.1715C5.22055 14.5056 5.07468 14.8463 4.94048 15.1929L6.80557 15.915C6.92286 15.612 7.05035 15.3143 7.18761 15.0224L5.37762 14.1715ZM4.94048 15.1929C4.64137 15.9654 5.02516 16.8342 5.7977 17.1333L6.51982 15.2682C6.77734 15.3679 6.90527 15.6575 6.80557 15.915L4.94048 15.1929ZM5.80567 17.1363L5.8138 17.1394L6.51999 15.2682L6.51186 15.2651L5.80567 17.1363ZM5.22231 15.8755L5.22033 15.8812L7.1095 16.5378L7.11148 16.5321L5.22231 15.8755ZM6.46795 15.2565L6.45968 15.2539L5.8536 17.1599L5.86188 17.1625L6.46795 15.2565ZM6.45168 15.2514C5.66013 15.007 4.82031 15.4505 4.57589 16.2421L6.48686 16.8321C6.40539 17.096 6.12545 17.2438 5.8616 17.1624L6.45168 15.2514ZM4.57589 16.2421C4.46711 16.5943 4.37012 16.9519 4.28538 17.3142L6.23283 17.7697C6.30695 17.4528 6.39176 17.1401 6.48686 16.8321L4.57589 16.2421ZM4.28538 17.3142C4.09672 18.1209 4.59771 18.9277 5.40436 19.1164L5.85984 17.169C6.12872 17.2319 6.29572 17.5008 6.23283 17.7697L4.28538 17.3142ZM5.41266 19.1183L5.42108 19.1202L5.85997 17.169L5.85154 17.1671L5.41266 19.1183ZM4.65949 17.9508L4.65838 17.9564L6.62047 18.344L6.62157 18.3384L4.65949 17.9508ZM5.8074 17.1644L5.79891 17.1629L5.46297 19.1345L5.47145 19.136L5.8074 17.1644ZM5.79062 17.1616C4.97282 17.0293 4.20263 17.585 4.07035 18.4028L6.04468 18.7222C6.00059 18.9947 5.74386 19.18 5.47126 19.1359L5.79062 17.1616ZM4.07035 18.4028C4.0116 18.766 3.96502 19.1332 3.93104 19.504L5.92269 19.6866C5.95247 19.3617 5.99326 19.0401 6.04468 18.7222L4.07035 18.4028ZM3.93104 19.504C3.85543 20.329 4.46291 21.0591 5.28788 21.1347L5.47041 19.143C5.7454 19.1682 5.94789 19.4116 5.92269 19.6866L3.93104 19.504ZM5.29623 21.1354L5.30471 21.1361L5.47055 19.143L5.46206 19.1423L5.29623 21.1354ZM4.38926 20.0824L4.38895 20.0879L6.38568 20.2022L6.38599 20.1967L4.38926 20.0824ZM5.41882 19.1455L5.41038 19.1453L5.34736 21.1443L5.3558 21.1445L5.41882 19.1455ZM5.40206 19.145C4.57386 19.1258 3.88689 19.7817 3.86768 20.6099L5.86714 20.6562C5.86074 20.9323 5.63175 21.1509 5.35568 21.1445L5.40206 19.145ZM3.86768 20.6099C3.86341 20.7941 3.86224 20.979 3.86421 21.1646L5.8641 21.1433C5.86236 20.9803 5.86339 20.8179 5.86714 20.6562L3.86768 20.6099ZM3.86421 21.1646C3.86619 21.3502 3.8713 21.5351 3.8795 21.7191L5.87752 21.6302C5.87033 21.4686 5.86584 21.3063 5.8641 21.1433L3.86421 21.1646ZM3.8795 21.7191C3.91636 22.5467 4.61714 23.1878 5.44475 23.1509L5.35577 21.1529C5.63164 21.1406 5.86524 21.3543 5.87752 21.6302L3.8795 21.7191ZM5.45312 23.1505L5.46155 23.1501L5.35584 21.1529L5.34741 21.1533L5.45312 23.1505ZM4.41177 22.2299L4.4122 22.2354L6.40605 22.0786L6.40562 22.0731L4.41177 22.2299ZM5.30492 21.1624L5.29645 21.1633L5.50487 23.1524L5.51333 23.1515L5.30492 21.1624ZM5.2882 21.1642C4.46502 21.2574 3.87324 22.0002 3.96641 22.8234L5.95372 22.5984C5.98478 22.8728 5.78752 23.1204 5.51312 23.1515L5.2882 21.1642ZM3.96641 22.8234C4.00828 23.1933 4.06268 23.5595 4.12915 23.9214L6.09624 23.56C6.03805 23.2433 5.99041 22.9226 5.95372 22.5984L3.96641 22.8234ZM4.12915 23.9214C4.27883 24.7362 5.06069 25.2754 5.87548 25.1257L5.51413 23.1586C5.78573 23.1087 6.04634 23.2884 6.09624 23.56L4.12915 23.9214ZM5.88382 25.1241L5.89227 25.1225L5.51425 23.1585L5.5058 23.1602L5.88382 25.1241ZM4.72659 24.3552L4.72781 24.3608L6.68116 23.9313L6.67993 23.9258L4.72659 24.3552ZM5.46431 23.1753L5.45592 23.1774L5.93627 25.1189L5.94465 25.1168L5.46431 23.1753ZM5.44766 23.1795C4.64521 23.3853 4.16153 24.2027 4.36734 25.0051L6.30464 24.5083C6.37324 24.7757 6.21201 25.0482 5.94453 25.1168L5.44766 23.1795ZM4.36734 25.0051C4.45978 25.3656 4.56437 25.721 4.68063 26.0708L6.57859 25.4402C6.47695 25.1343 6.38549 24.8235 6.30464 24.5083L4.36734 25.0051ZM4.68063 26.0708C4.94186 26.857 5.79094 27.2826 6.57711 27.0213L5.94643 25.1234C6.20849 25.0363 6.49152 25.1781 6.57859 25.4402L4.68063 26.0708ZM6.58518 27.0186L6.5934 27.0158L5.94657 25.1233L5.93835 25.1261L6.58518 27.0186ZM5.33254 26.4177L5.33464 26.4233L7.20953 25.7271L7.20743 25.7214L5.33254 26.4177ZM5.89903 25.1474L5.89097 25.1506L6.63708 27.0063L6.64514 27.003L5.89903 25.1474ZM5.88318 25.1538C5.11718 25.4693 4.75199 26.346 5.06749 27.112L6.91677 26.3503C7.02194 26.6057 6.90021 26.8979 6.64487 27.0031L5.88318 25.1538ZM5.06749 27.112C5.20905 27.4557 5.36215 27.7931 5.52629 28.1238L7.31774 27.2346C7.1743 26.9456 7.04049 26.6507 6.91677 26.3503L5.06749 27.112ZM5.52629 28.1238C5.89462 28.8659 6.79475 29.1688 7.5368 28.8005L6.64757 27.0091C6.89492 26.8863 7.19497 26.9873 7.31774 27.2346L5.52629 28.1238ZM7.54433 28.7967L7.5521 28.7928L6.6478 27.0089L6.64004 27.0128L7.54433 28.7967ZM6.22045 28.3767L6.22339 28.3822L7.9824 27.4304L7.97945 27.425L6.22045 28.3767ZM6.60391 27.0397L6.59636 27.044L7.59433 28.7772L7.60188 28.7729L6.60391 27.0397ZM6.58907 27.0483C5.87466 27.4677 5.63551 28.3868 6.05491 29.1012L7.77967 28.0887C7.91947 28.3268 7.83975 28.6332 7.60161 28.773L6.58907 27.0483ZM6.05491 29.1012C6.24291 29.4215 6.44169 29.7343 6.65074 30.0391L8.30022 28.9081C8.1176 28.6418 7.94393 28.3685 7.77967 28.0887L6.05491 29.1012ZM6.65074 30.0391C7.11923 30.7224 8.05288 30.8965 8.73612 30.428L7.60509 28.7785C7.83283 28.6223 8.14405 28.6804 8.30022 28.9081L6.65074 30.0391ZM8.74317 30.4231L8.75033 30.4181L7.6052 28.7784L7.59804 28.7834L8.74317 30.4231ZM7.37335 30.1923L7.37705 30.1973L8.98587 29.0092L8.98218 29.0042L7.37335 30.1923ZM7.56608 28.815L7.55918 28.8204L8.78995 30.3969L8.79685 30.3915L7.56608 28.815ZM7.55247 28.8257C6.90386 29.3411 6.79584 30.2846 7.31121 30.9333L8.87708 29.6891C9.04887 29.9053 9.01287 30.2198 8.79666 30.3916L7.55247 28.8257ZM7.31121 30.9333C7.54209 31.2238 7.78289 31.5058 8.03309 31.7788L9.50733 30.4272C9.28894 30.189 9.07871 29.9428 8.87708 29.6891L7.31121 30.9333ZM8.03309 31.7788C8.59292 32.3894 9.54177 32.4306 10.1524 31.8708L8.80089 30.3965C9.00443 30.2099 9.32071 30.2237 9.50732 30.4272L8.03309 31.7788ZM10.1587 31.865L10.1651 31.859L8.80102 30.3964L8.79459 30.4024L10.1587 31.865ZM8.77027 31.829L8.77461 31.8334L10.2002 30.4307L10.1959 30.4263L8.77027 31.829ZM8.76721 30.4383L8.76108 30.4447L10.2015 31.8322L10.2077 31.8258L8.76721 30.4383ZM8.75501 30.4511C8.18557 31.0527 8.2117 32.0021 8.81338 32.5716L10.1881 31.119C10.3887 31.3088 10.3974 31.6253 10.2076 31.8258L8.75501 30.4511ZM8.81338 32.5716C9.08293 32.8267 9.36145 33.0721 9.64841 33.3073L10.9162 31.7604C10.6661 31.5555 10.4233 31.3415 10.1881 31.119L8.81338 32.5716ZM9.64841 33.3073C10.2891 33.8324 11.2343 33.7387 11.7594 33.098L10.2125 31.8302C10.3876 31.6166 10.7026 31.5854 10.9162 31.7604L9.64841 33.3073ZM11.7649 33.0912L11.7705 33.0843L10.2126 31.83L10.207 31.837L11.7649 33.0912ZM10.386 33.253L10.3909 33.2567L11.6019 31.665L11.597 31.6613L10.386 33.253ZM10.1845 31.8771L10.1793 31.8843L11.8031 33.0519L11.8083 33.0446L10.1845 31.8771ZM10.1743 31.8914C9.69647 32.5681 9.85777 33.5041 10.5345 33.9819L11.688 32.348C11.9136 32.5073 11.9674 32.8193 11.8081 33.0449L10.1743 31.8914ZM10.5345 33.9819C10.8378 34.196 11.149 34.3994 11.4677 34.5914L12.5 32.8784C12.2229 32.7114 11.9521 32.5345 11.688 32.348L10.5345 33.9819ZM11.4677 34.5914C12.1772 35.019 13.0991 34.7904 13.5267 34.0809L11.8137 33.0486C11.9562 32.812 12.2635 32.7359 12.5 32.8784L11.4677 34.5914ZM13.5312 34.0733L13.5358 34.0655L11.8138 33.0483L11.8092 33.0561L13.5312 34.0733ZM12.1901 34.4317L12.1954 34.4346L13.1647 32.6851L13.1594 32.6822L12.1901 34.4317ZM11.7923 33.0996L11.7881 33.1077L13.5636 34.0282L13.5678 34.0201L11.7923 33.0996ZM11.784 33.1156C11.4093 33.8544 11.7044 34.7571 12.4432 35.1319L13.3479 33.3482C13.5942 33.4731 13.6926 33.774 13.5677 34.0203L11.784 33.1156ZM12.4432 35.1319C12.7744 35.2999 13.1124 35.4561 13.4567 35.6L14.228 33.7547C13.9292 33.6298 13.6357 33.4941 13.348 33.3482L12.4432 35.1319ZM13.4567 35.6C14.2211 35.9194 15.0997 35.5588 15.4192 34.7944L13.5738 34.0232C13.6803 33.7684 13.9732 33.6482 14.228 33.7547L13.4567 35.6ZM15.4226 34.7862L15.426 34.7777L13.5739 34.023L13.5704 34.0315L15.4226 34.7862ZM14.1488 35.3366L14.1543 35.3387L14.8566 33.4661L14.8511 33.464L14.1488 35.3366ZM13.5597 34.0775L13.5567 34.0862L15.4482 34.736L15.4512 34.7273L13.5597 34.0775ZM13.5538 34.0947C13.2917 34.8805 13.7163 35.7301 14.5021 35.9922L15.135 34.095C15.3969 34.1824 15.5384 34.4656 15.4511 34.7275L13.5538 34.0947ZM14.5021 35.9922C14.8543 36.1097 15.2121 36.2146 15.5749 36.3063L16.0652 34.3673C15.7506 34.2878 15.4404 34.1969 15.135 34.095L14.5021 35.9922ZM15.5749 36.3063C16.378 36.5094 17.1937 36.023 17.3968 35.2198L15.4578 34.7295C15.5255 34.4618 15.7975 34.2996 16.0652 34.3673L15.5749 36.3063ZM17.399 35.211L17.4012 35.202L15.4579 34.7293L15.4557 34.7383L17.399 35.211ZM16.2205 35.9436L16.2259 35.9447L16.644 33.9889L16.6386 33.9878L16.2205 35.9436ZM15.4516 34.7854L15.4499 34.7944L17.4167 35.1574L17.4183 35.1483L15.4516 34.7854ZM15.4483 34.8034C15.3053 35.6194 15.851 36.3968 16.667 36.5397L17.012 34.5697C17.2841 34.6173 17.4659 34.8764 17.4183 35.1484L15.4483 34.8034ZM16.667 36.5397C17.032 36.6036 17.4012 36.6544 17.7741 36.6915L17.9723 34.7014C17.6488 34.6692 17.3285 34.6251 17.012 34.5697L16.667 36.5397ZM17.7741 36.6915C18.5984 36.7737 19.3333 36.1719 19.4154 35.3476L17.4252 35.1494C17.4526 34.8746 17.6976 34.674 17.9723 34.7014L17.7741 36.6915ZM19.4162 35.3387L19.4171 35.3296L17.4252 35.1491L17.4244 35.1582L19.4162 35.3387ZM18.3587 36.2374L18.3644 36.2378L18.4892 34.2417L18.4836 34.2413L18.3587 36.2374ZM17.4274 35.205L17.4271 35.2141L19.4259 35.2835L19.4262 35.2744L17.4274 35.205ZM17.4268 35.223C17.4054 36.0511 18.0595 36.7398 18.8876 36.7612L18.9392 34.7619C19.2153 34.769 19.4333 34.9986 19.4262 35.2746L17.4268 35.223ZM18.8876 36.7612C19.0731 36.766 19.2593 36.7674 19.4462 36.7654L19.4249 34.7656C19.2623 34.7673 19.1004 34.766 18.9392 34.7619L18.8876 36.7612ZM19.4462 36.7654C19.6331 36.7634 19.8193 36.7581 20.0046 36.7493L19.9104 34.7515C19.7493 34.7591 19.5875 34.7638 19.4249 34.7656L19.4462 36.7654ZM20.0046 36.7493C20.8321 36.7103 21.4713 36.0078 21.4323 35.1803L19.4345 35.2745C19.4215 34.9987 19.6346 34.7645 19.9104 34.7515L20.0046 36.7493ZM21.4318 35.1714L21.4313 35.1624L19.4345 35.2743L19.435 35.2834L21.4318 35.1714ZM20.5168 36.2148L20.5224 36.2143L20.3547 34.2214L20.349 34.2219L20.5168 36.2148ZM19.4448 35.3293L19.4458 35.3384L21.4333 35.1155L21.4323 35.1064L19.4448 35.3293ZM19.4468 35.3473C19.5465 36.1697 20.294 36.7556 21.1164 36.6559L20.8758 34.6704C21.1499 34.6372 21.3991 34.8325 21.4323 35.1067L19.4468 35.3473ZM21.1164 36.6559C21.4884 36.6108 21.8565 36.5522 22.22 36.4805L21.8331 34.5183C21.5178 34.5805 21.1986 34.6313 20.8758 34.6704L21.1164 36.6559ZM22.22 36.4805C23.0328 36.3202 23.5617 35.5314 23.4015 34.7186L21.4392 35.1056C21.3858 34.8347 21.5621 34.5717 21.8331 34.5183L22.22 36.4805ZM23.3996 34.7096L23.3978 34.7006L21.4392 35.1056L21.4411 35.1146L23.3996 34.7096ZM22.6484 35.8763L22.6538 35.875L22.194 33.9286L22.1886 33.9299L22.6484 35.8763ZM21.4575 35.1589L21.4599 35.1678L23.3927 34.6536L23.3903 34.6447L21.4575 35.1589ZM21.4622 35.1765C21.6824 35.9751 22.5083 36.4441 23.3069 36.2239L22.7754 34.2958C23.0416 34.2224 23.3169 34.3788 23.3903 34.645L21.4622 35.1765ZM23.3069 36.2239C23.6677 36.1245 24.0231 36.012 24.3727 35.887L23.6996 34.0037C23.3964 34.1121 23.0882 34.2096 22.7754 34.2958L23.3069 36.2239ZM24.3727 35.887C25.1528 35.6082 25.5592 34.7498 25.2804 33.9697L23.397 34.6428C23.3041 34.3828 23.4396 34.0967 23.6996 34.0037L24.3727 35.887ZM25.2773 33.9612L25.2741 33.9526L23.3969 34.6427L23.4001 34.6513L25.2773 33.9612ZM24.7068 35.2261L24.7122 35.224L23.9697 33.3669L23.9643 33.3691L24.7068 35.2261ZM23.4231 34.6924L23.4268 34.7008L25.2624 33.9069L25.2588 33.8985L23.4231 34.6924ZM23.4304 34.7091C23.7661 35.4664 24.6522 35.8083 25.4095 35.4726L24.5991 33.6442C24.8516 33.5323 25.1469 33.6462 25.2588 33.8987L23.4304 34.7091ZM25.4095 35.4726C25.7507 35.3214 26.0853 35.158 26.4128 34.983L25.4703 33.219C25.1857 33.3711 24.8952 33.5129 24.5991 33.6442L25.4095 35.4726ZM26.4128 34.983C27.1435 34.5926 27.4193 33.6838 27.0289 32.9531L25.2649 33.8956C25.1348 33.6521 25.2267 33.3491 25.4703 33.219L26.4128 34.983ZM27.0247 32.9454L27.0204 32.9374L25.2648 33.8954L25.2691 33.9034L27.0247 32.9454ZM26.6458 34.2806L26.651 34.2775L25.6446 32.5492L25.6394 32.5522L26.6458 34.2806ZM25.2977 33.9401L25.3025 33.9477L27.0026 32.8944L26.9978 32.8867L25.2977 33.9401ZM25.3072 33.9553C25.7499 34.6556 26.6764 34.8645 27.3766 34.4218L26.3081 32.7313C26.5415 32.5837 26.8503 32.6533 26.9978 32.8868L25.3072 33.9553ZM27.3766 34.4219C27.6911 34.2231 27.9979 34.0131 28.2966 33.7926L27.1085 32.1837C26.8485 32.3757 26.5815 32.5584 26.3081 32.7312L27.3766 34.4219ZM28.2966 33.7926C28.963 33.3005 29.1043 32.3613 28.6122 31.6949L27.0033 32.8829C26.8393 32.6608 26.8864 32.3478 27.1085 32.1837L28.2966 33.7926ZM28.607 31.6879L28.6016 31.6808L27.0031 32.8828L27.0085 32.8899L28.607 31.6879ZM28.4247 33.0645L28.4295 33.0607L27.1849 31.4952L27.18 31.499L28.4247 33.0645ZM27.0418 32.9216L27.0476 32.9284L28.5783 31.6412L28.5725 31.6343L27.0418 32.9216ZM27.0532 32.935C27.5918 33.5644 28.5387 33.6379 29.1681 33.0993L27.8677 31.5798C28.0775 31.4002 28.3931 31.4248 28.5727 31.6345L27.0532 32.935ZM29.1681 33.0993C29.45 32.858 29.7232 32.6067 29.9873 32.3459L28.5819 30.923C28.3516 31.1504 28.1133 31.3695 27.8677 31.5798L29.1681 33.0993ZM29.9873 32.3459C30.5767 31.7638 30.5826 30.8141 30.0005 30.2247L28.5775 31.6301C28.3834 31.4336 28.3854 31.117 28.5819 30.923L29.9873 32.3459ZM29.9942 30.2184L29.988 30.2122L28.5774 31.6301L28.5837 31.6363L29.9942 30.2184ZM30.0103 31.6072L30.0145 31.6027L28.5594 30.2306L28.5551 30.2351L30.0103 31.6072ZM28.6205 31.6622L28.6271 31.6681L29.9599 30.1769L29.9534 30.1711L28.6205 31.6622ZM28.6336 31.6738C29.2561 32.2205 30.2038 32.1591 30.7505 31.5367L29.2478 30.2169C29.43 30.0094 29.7459 29.9889 29.9534 30.1711L28.6336 31.6738ZM30.7505 31.5367C30.9948 31.2585 31.2296 30.9714 31.4542 30.676L29.8622 29.4654C29.666 29.7234 29.4611 29.9741 29.2478 30.2169L30.7505 31.5367ZM31.4542 30.676C31.9556 30.0165 31.8275 29.0755 31.1681 28.574L29.9575 30.1661C29.7377 29.9989 29.695 29.6852 29.8622 29.4654L31.4542 30.676ZM31.1611 28.5688L31.1541 28.5636L29.9575 30.1661L29.9645 30.1713L31.1611 28.5688ZM31.3728 29.9415L31.3763 29.9364L29.7424 28.783L29.7389 28.7881L31.3728 29.9415ZM30.0043 30.1915L30.0116 30.1964L31.1218 28.5328L31.1145 28.528L30.0043 30.1915ZM30.0188 30.2012C30.7119 30.655 31.6416 30.4611 32.0955 29.768L30.4223 28.6724C30.5735 28.4414 30.8834 28.3767 31.1145 28.528L30.0188 30.2012ZM32.0955 29.768C32.298 29.4587 32.49 29.1418 32.6712 28.8176L30.9252 27.842C30.767 28.1253 30.5992 28.4022 30.4223 28.6724L32.0955 29.768ZM32.6712 28.8176C33.0753 28.0944 32.8166 27.1806 32.0934 26.7765L31.1178 28.5224C30.8768 28.3877 30.7905 28.0831 30.9252 27.842L32.6712 28.8176ZM32.086 26.7724L32.0784 26.7682L31.1175 28.5223L31.1252 28.5265L32.086 26.7724ZM32.4874 28.1023L32.4902 28.0968L30.7113 27.1827L30.7085 27.1882L32.4874 28.1023ZM31.1675 28.541L31.1753 28.5448L32.042 26.7423L32.0341 26.7385L31.1675 28.541ZM31.1832 28.5485C31.9329 28.901 32.8264 28.5789 33.1788 27.8292L31.3688 26.9783C31.4863 26.7284 31.7842 26.6211 32.0341 26.7385L31.1832 28.5485ZM33.1788 27.8292C33.3359 27.4951 33.4818 27.1544 33.616 26.8078L31.7509 26.0857C31.6336 26.3887 31.5061 26.6863 31.3689 26.9783L33.1788 27.8292ZM33.616 26.8078C33.9151 26.0353 33.5313 25.1665 32.7587 24.8674L32.0366 26.7325C31.7791 26.6328 31.6512 26.3432 31.7509 26.0857L33.616 26.8078ZM32.751 24.8645L32.7429 24.8614L32.0362 26.7324L32.0444 26.7355L32.751 24.8645ZM33.3343 26.1248L33.3362 26.1191L31.4468 25.4632L31.4449 25.4689L33.3343 26.1248ZM32.0885 26.7442L32.0968 26.7468L32.7028 24.8408L32.6946 24.8382L32.0885 26.7442ZM32.1048 26.7493C32.8963 26.9937 33.7361 26.5502 33.9806 25.7586L32.0696 25.1685C32.1511 24.9047 32.431 24.7568 32.6949 24.8383L32.1048 26.7493ZM33.9806 25.7586C34.0893 25.4063 34.1863 25.0488 34.2711 24.6865L32.3236 24.231C32.2495 24.5479 32.1647 24.8606 32.0696 25.1686L33.9806 25.7586ZM34.2711 24.6865C34.4597 23.8798 33.9587 23.0729 33.1521 22.8843L32.6966 24.8317C32.4277 24.7688 32.2607 24.4999 32.3236 24.231L34.2711 24.6865ZM33.1436 22.8823L33.1351 22.8804L32.6967 24.8318L32.7052 24.8337L33.1436 22.8823ZM33.8969 24.0502L33.898 24.0446L31.936 23.6565L31.9349 23.662L33.8969 24.0502ZM32.7488 24.8363L32.7573 24.8377L33.0937 22.8662L33.0852 22.8648L32.7488 24.8363ZM32.7658 24.8391C33.5836 24.9714 34.3538 24.4157 34.4861 23.5979L32.5118 23.2785C32.5559 23.0059 32.8126 22.8207 33.0852 22.8648L32.7658 24.8391ZM34.4861 23.5979C34.5449 23.2347 34.5914 22.8674 34.6254 22.4967L32.6338 22.3141C32.604 22.639 32.5632 22.9606 32.5118 23.2785L34.4861 23.5979ZM34.6254 22.4967C34.701 21.6717 34.0935 20.9416 33.2686 20.866L33.086 22.8577C32.8111 22.8325 32.6086 22.5891 32.6338 22.3141L34.6254 22.4967ZM33.2602 20.8653L33.2517 20.8646L33.0859 22.8577L33.0944 22.8584L33.2602 20.8653ZM34.1672 21.9186L34.1675 21.9131L32.1708 21.7982L32.1705 21.8037L34.1672 21.9186ZM33.1377 22.8552L33.1462 22.8554L33.209 20.8564L33.2005 20.8561L33.1377 22.8552ZM33.1544 22.8556C33.9826 22.8749 34.6696 22.219 34.6888 21.3908L32.6893 21.3444C32.6957 21.0684 32.9247 20.8498 33.2008 20.8562L33.1544 22.8556ZM34.6888 21.3908C34.693 21.2066 34.6942 21.0217 34.6922 20.8361L32.6924 20.8574C32.6941 21.0204 32.6931 21.1828 32.6893 21.3445L34.6888 21.3908ZM34.6922 20.8361C34.6903 20.6505 34.6852 20.4656 34.677 20.2815L32.6789 20.3705C32.6861 20.5321 32.6906 20.6944 32.6924 20.8574L34.6922 20.8361ZM34.677 20.2815C34.6401 19.4539 33.9393 18.8129 33.1117 18.8498L33.2007 20.8478C32.9248 20.8601 32.6912 20.6464 32.6789 20.3705L34.677 20.2815ZM33.1035 18.8502L33.095 18.8506L33.2005 20.8478L33.2089 20.8474L33.1035 18.8502ZM34.1447 19.7706L34.1442 19.7651L32.1504 19.9223L32.1509 19.9278L34.1447 19.7706ZM33.2515 20.8383L33.26 20.8374L33.0516 18.8483L33.0431 18.8492L33.2515 20.8383ZM33.2683 20.8365C34.0798 20.7446 34.6662 20.0217 34.5936 19.2122L32.6016 19.3909C32.5773 19.1208 32.7727 18.8798 33.0433 18.8492L33.2683 20.8365ZM31.4986 21.0006C32.5099 21.0006 33.4459 20.6658 34.1979 20.1013L32.9973 18.5018C32.5797 18.8152 32.0622 19.0006 31.4986 19.0006V21.0006ZM27.0312 17.0447C27.3005 19.2738 29.1972 21.0006 31.4986 21.0006V19.0006C30.2211 19.0006 29.1662 18.0416 29.0168 16.8048L27.0312 17.0447ZM25.3146 19.2006C26.7129 19.2006 27.9613 18.5613 28.792 17.5652L27.256 16.2843C26.7852 16.8489 26.0889 17.2006 25.3146 17.2006V19.2006ZM20.7667 14.6006C20.7667 17.1273 22.7891 19.2006 25.3146 19.2006V17.2006C23.9211 17.2006 22.7667 16.0503 22.7667 14.6006H20.7667ZM21.4961 12.1012C21.0342 12.822 20.7667 13.6816 20.7667 14.6006H22.7667C22.7667 14.0739 22.9192 13.5873 23.18 13.1802L21.4961 12.1012Z" fill="#000C79" mask="url(#path-2-inside-1_2102_104531)"/>
<path fill-rule="evenodd" clip-rule="evenodd" d="M22.3387 12.6409C20.9584 12.0103 19.9992 10.6175 19.9992 9.0008C19.9992 7.90928 20.4364 6.91988 21.1452 6.19815C21.1083 6.18516 21.0694 6.17631 21.0287 6.17222C20.6815 6.13726 20.3307 6.11492 19.9768 6.10567C19.8805 6.10315 19.7899 6.12803 19.7124 6.17321C19.6355 6.12684 19.5453 6.10057 19.449 6.10159C19.2723 6.10347 19.0964 6.1086 18.9213 6.11692C18.6455 6.13002 18.4325 6.36424 18.4456 6.64007L18.4461 6.64914L18.4291 6.65058L18.4281 6.64149C18.3946 6.36739 18.1452 6.17235 17.8711 6.20587C17.5198 6.24882 17.1725 6.30468 16.8297 6.37295C16.5589 6.42689 16.383 6.69016 16.437 6.96099L16.4389 6.97003L16.4222 6.974L16.4198 6.96506C16.3457 6.69906 16.0699 6.54353 15.8039 6.61768C15.4636 6.71255 15.1285 6.81985 14.7992 6.93905C14.5395 7.03302 14.4052 7.3197 14.4992 7.57936L14.5024 7.58804L14.4864 7.59451L14.4827 7.58604C14.3695 7.33419 14.0735 7.22183 13.8216 7.33508C13.5 7.47971 13.1848 7.63601 12.8767 7.80345C12.634 7.93529 12.5442 8.23886 12.676 8.4815L12.6805 8.48956L12.6656 8.49839L12.6607 8.49063C12.5111 8.25853 12.2016 8.19167 11.9695 8.34128C11.6736 8.53204 11.3853 8.73355 11.1053 8.94525C10.885 9.11176 10.8414 9.42533 11.0079 9.64562L11.0135 9.65287L11 9.66385L10.994 9.65693C10.8116 9.44963 10.4957 9.42948 10.2884 9.61192C10.0244 9.84423 9.7692 10.0862 9.52335 10.3374C9.33018 10.5347 9.33355 10.8513 9.53088 11.0445L9.53747 11.0508L9.52583 11.0636L9.5189 11.0576C9.30776 10.8797 8.99232 10.9065 8.81435 11.1177C8.58793 11.3863 8.37138 11.6634 8.16524 11.9486C8.00346 12.1724 8.05373 12.485 8.27753 12.6467L8.285 12.652L8.27542 12.6664L8.26764 12.6615C8.03241 12.5169 7.72446 12.5903 7.57982 12.8255C7.39601 13.1245 7.22304 13.4308 7.06145 13.7439C6.93482 13.9893 7.03109 14.2909 7.27649 14.4176L7.28472 14.4217L7.27737 14.4374L7.2689 14.4337C7.01469 14.3258 6.72118 14.4445 6.61332 14.6987C6.47643 15.0213 6.35122 15.3501 6.2382 15.6844C6.14978 15.946 6.29017 16.2298 6.55178 16.3182L6.56058 16.3211L6.55563 16.3378L6.54668 16.3354C6.27916 16.2669 6.00679 16.4283 5.93832 16.6958C5.85159 17.0347 5.77716 17.3785 5.71551 17.7266C5.66736 17.9985 5.84875 18.2579 6.12066 18.3061L6.12976 18.3076L6.12736 18.3249L6.11824 18.3239C5.84348 18.2962 5.59832 18.4965 5.57066 18.7713C5.5357 19.1185 5.51336 19.4693 5.50411 19.8232C5.50159 19.9195 5.52647 20.0101 5.57165 20.0877C5.52528 20.1645 5.499 20.2547 5.50003 20.351C5.50191 20.5277 5.50704 20.7036 5.51535 20.8787C5.52845 21.1545 5.76268 21.3675 6.03851 21.3544L6.04758 21.3539L6.04902 21.3709L6.03993 21.3719C5.76582 21.4054 5.57079 21.6548 5.60431 21.9289C5.64726 22.2802 5.70312 22.6275 5.77139 22.9703C5.82533 23.2412 6.0886 23.417 6.35942 23.363L6.36847 23.3611L6.37244 23.3778L6.3635 23.3802C6.0975 23.4543 5.94197 23.7301 6.01612 23.9961C6.11099 24.3364 6.21828 24.6715 6.33748 25.0009C6.43146 25.2605 6.71814 25.3948 6.9778 25.3009L6.98648 25.2976L6.99295 25.3136L6.98448 25.3173C6.73263 25.4306 6.62027 25.7265 6.73352 25.9784C6.87814 26.3 7.03445 26.6152 7.20189 26.9234C7.33373 27.166 7.6373 27.2558 7.87994 27.124L7.88799 27.1195L7.89683 27.1344L7.88906 27.1393C7.65697 27.289 7.5901 27.5984 7.73972 27.8305C7.93048 28.1264 8.13199 28.4147 8.34369 28.6948C8.5102 28.9151 8.82376 28.9587 9.04406 28.7921L9.05131 28.7866L9.06229 28.8L9.05537 28.806C8.84807 28.9884 8.82792 29.3044 9.01036 29.5117C9.24267 29.7756 9.48468 30.0308 9.73583 30.2767C9.93316 30.4698 10.2497 30.4665 10.4429 30.2691L10.4492 30.2626L10.462 30.2742L10.4561 30.2811C10.2781 30.4923 10.305 30.8077 10.5161 30.9857C10.7847 31.2121 11.0619 31.4286 11.347 31.6348C11.5708 31.7966 11.8834 31.7463 12.0452 31.5225L12.0505 31.515L12.0648 31.5246L12.0599 31.5324C11.9153 31.7676 11.9888 32.0756 12.224 32.2202C12.5229 32.404 12.8292 32.577 13.1424 32.7386C13.3878 32.8652 13.6894 32.7689 13.816 32.5235L13.8202 32.5153L13.8358 32.5226L13.8321 32.5311C13.7243 32.7853 13.8429 33.0788 14.0971 33.1867C14.4198 33.3236 14.7485 33.4488 15.0829 33.5618C15.3445 33.6502 15.6282 33.5098 15.7166 33.2482L15.7195 33.2394L15.7362 33.2444L15.7338 33.2533C15.6654 33.5209 15.8267 33.7932 16.0943 33.8617C16.4332 33.9484 16.7769 34.0229 17.125 34.0845C17.3969 34.1327 17.6564 33.9513 17.7045 33.6794L17.706 33.6703L17.7233 33.6727L17.7223 33.6818C17.6947 33.9565 17.895 34.2017 18.1697 34.2294C18.5169 34.2643 18.8677 34.2867 19.2216 34.2959C19.3179 34.2984 19.4086 34.2736 19.4861 34.2284C19.5629 34.2747 19.6532 34.301 19.7495 34.3C19.9261 34.2981 20.102 34.293 20.2771 34.2847C20.5529 34.2716 20.7659 34.0373 20.7528 33.7615L20.7523 33.7524L20.7693 33.751L20.7704 33.7601C20.8039 34.0342 21.0533 34.2292 21.3274 34.1957C21.6787 34.1528 22.026 34.0969 22.3688 34.0286C22.6396 33.9747 22.8154 33.7114 22.7615 33.4406L22.7596 33.4315L22.7762 33.4276L22.7786 33.4365C22.8528 33.7025 23.1285 33.8581 23.3945 33.7839C23.7348 33.689 24.0699 33.5817 24.3993 33.4625C24.659 33.3686 24.7933 33.0819 24.6993 32.8222L24.6961 32.8135L24.712 32.8071L24.7157 32.8155C24.829 33.0674 25.125 33.1798 25.3768 33.0665C25.6984 32.9219 26.0136 32.7656 26.3218 32.5981C26.5644 32.4663 26.6543 32.1627 26.5224 31.9201L26.518 31.912L26.5329 31.9032L26.5378 31.911C26.6874 32.1431 26.9968 32.2099 27.2289 32.0603C27.5248 31.8695 27.8131 31.668 28.0932 31.4563C28.3135 31.2898 28.3571 30.9763 28.1906 30.756L28.185 30.7487L28.1984 30.7377L28.2044 30.7447C28.3869 30.9519 28.7028 30.9721 28.9101 30.7897C29.1741 30.5574 29.4293 30.3153 29.6751 30.0642C29.8683 29.8669 29.8649 29.5503 29.6676 29.3571L29.661 29.3508L29.6726 29.338L29.6796 29.3439C29.8907 29.5219 30.2061 29.495 30.3841 29.2839C30.6105 29.0153 30.8271 28.7381 31.0332 28.453C31.195 28.2292 31.1447 27.9166 30.9209 27.7548L30.9135 27.7495L30.923 27.7352L30.9308 27.7401C31.166 27.8847 31.474 27.8113 31.6186 27.576C31.8024 27.2771 31.9754 26.9708 32.137 26.6576C32.2636 26.4122 32.1674 26.1107 31.922 25.984L31.9137 25.9799L31.9211 25.9642L31.9296 25.9679C32.1838 26.0758 32.4773 25.9571 32.5851 25.7029C32.722 25.3803 32.8472 25.0515 32.9603 24.7172C33.0487 24.4556 32.9083 24.1718 32.6467 24.0834L32.6379 24.0805L32.6428 24.0638L32.6518 24.0662C32.9193 24.1347 33.1917 23.9733 33.2601 23.7058C33.3469 23.3669 33.4213 23.0231 33.4829 22.675C33.5311 22.4031 33.3497 22.1437 33.0778 22.0955L33.0687 22.094L33.0711 22.0767L33.0802 22.0777C33.355 22.1053 33.6001 21.905 33.6278 21.6303C33.6628 21.2831 33.6851 20.9323 33.6944 20.5784C33.6969 20.4821 33.672 20.3914 33.6268 20.3139C33.6732 20.2371 33.6995 20.1469 33.6984 20.0505C33.6965 19.8739 33.6914 19.698 33.6831 19.5229C33.6791 19.4379 33.654 19.3588 33.6132 19.2905C33.0258 19.7363 32.2934 20.0008 31.4992 20.0008C29.7098 20.0008 28.234 18.6579 28.0246 16.925C27.3739 17.7054 26.4015 18.2008 25.3152 18.2008C23.3558 18.2008 21.7674 16.589 21.7674 14.6008C21.7674 13.878 21.9773 13.2049 22.3387 12.6409Z" fill="url(#paint0_linear_2102_104531)"/>
<path fill-rule="evenodd" clip-rule="evenodd" d="M20.0818 9.80469C14.9388 9.97481 10.8008 14.2197 10.8008 19.3969H14.5227C14.5227 15.6967 17.9964 12.7675 21.878 13.7098C21.9746 13.3245 22.1323 12.9639 22.3402 12.6395C21.1954 12.1165 20.3403 11.0692 20.0818 9.80469ZM26.1458 18.1006C26.8919 17.9193 27.5464 17.4989 28.0262 16.9236C28.1726 18.1354 28.9383 19.1565 29.9974 19.661C29.8609 24.8366 25.6153 28.9994 20.4139 28.9994V25.2816C24.0865 25.2816 26.9696 21.9104 26.1458 18.1006Z" fill="#0069FF"/>
<path fill-rule="evenodd" clip-rule="evenodd" d="M20.414 25.3044H16.7148V21.6094H20.414V25.3044Z" fill="#0069FF"/>
<path fill-rule="evenodd" clip-rule="evenodd" d="M16.7136 28.1558H13.8594V25.3047H16.7136V28.1558Z" fill="#0069FF"/>
<path fill-rule="evenodd" clip-rule="evenodd" d="M13.8624 25.3057H11.4648V22.9336H13.8396V25.3057H13.8624Z" fill="#0069FF"/>
<circle cx="24.5988" cy="9.00117" r="0.8" fill="#000C79"/>
<circle cx="29.3988" cy="12.8012" r="1.6" fill="#000C79"/>
<circle cx="33.398" cy="16.0016" r="0.4" fill="#000C79"/>
<circle cx="27.1988" cy="8.60117" r="0.4" fill="#000C79"/>
<circle cx="32.5992" cy="32.402" r="0.4" fill="#000C79"/>
<circle cx="8.19883" cy="8.80039" r="0.4" fill="#000C79"/>
<circle cx="24.8" cy="8.8" r="0.8" fill="url(#paint1_linear_2102_104531)"/>
<circle cx="29.6" cy="12.6" r="1.6" fill="url(#paint2_linear_2102_104531)"/>
<circle cx="33.5992" cy="15.8004" r="0.4" fill="url(#paint3_linear_2102_104531)"/>
<circle cx="27.4" cy="8.4" r="0.4" fill="url(#paint4_linear_2102_104531)"/>
<circle cx="32.8004" cy="32.2008" r="0.4" fill="url(#paint5_linear_2102_104531)"/>
<circle cx="8.4" cy="8.59922" r="0.4" fill="url(#paint6_linear_2102_104531)"/>
<rect x="14.002" y="8.72266" width="1.2" height="1.2" transform="rotate(-25.8385 14.002 8.72266)" fill="#0BE1FF"/>
<rect x="22.4023" y="19.9219" width="1.2" height="1.2" transform="rotate(-25.8385 22.4023 19.9219)" fill="#0BE1FF"/>
<rect x="10.8008" y="27.5215" width="1.2" height="1.2" transform="rotate(-25.8385 10.8008 27.5215)" fill="#0BE1FF"/>
<rect x="32.4141" y="20.5996" width="0.4" height="0.4" transform="rotate(36.744 32.4141 20.5996)" fill="#0BE1FF"/>
<rect x="8.80078" y="22.0742" width="0.632185" height="0.632185" transform="rotate(-25.8385 8.80078 22.0742)" fill="#0BE1FF"/>
<rect x="20.002" y="16.0742" width="0.632185" height="0.632185" transform="rotate(-25.8385 20.002 16.0742)" fill="#0BE1FF"/>
<rect x="7.60156" y="17.6738" width="0.632185" height="0.632185" transform="rotate(-25.8385 7.60156 17.6738)" fill="#0BE1FF"/>
<rect x="17.2012" y="31.2754" width="0.632185" height="0.632185" transform="rotate(-25.8385 17.2012 31.2754)" fill="#0BE1FF"/>
<rect x="17.4434" y="18.5996" width="0.599293" height="0.599293" transform="rotate(23.7147 17.4434 18.5996)" fill="#0BE1FF"/>
<rect x="11.043" y="12.1992" width="0.599293" height="0.599293" transform="rotate(23.7147 11.043 12.1992)" fill="#0BE1FF"/>
<rect x="24.793" y="30.4004" width="0.599293" height="0.599293" transform="rotate(23.7147 24.793 30.4004)" fill="#0BE1FF"/>
<rect x="29.8418" y="25.7988" width="0.599293" height="0.599293" transform="rotate(23.7147 29.8418 25.7988)" fill="#0BE1FF"/>
<defs>
<linearGradient id="paint0_linear_2102_104531" x1="19.0035" y1="25.9599" x2="13.5422" y2="33.4071" gradientUnits="userSpaceOnUse">
<stop stop-color="#C6E3FF"/>
<stop offset="1" stop-color="#0069FF"/>
</linearGradient>
<linearGradient id="paint1_linear_2102_104531" x1="25" y1="8.5" x2="23.5" y2="10.5" gradientUnits="userSpaceOnUse">
<stop stop-color="#C6E3FF"/>
<stop offset="1" stop-color="#0069FF"/>
</linearGradient>
<linearGradient id="paint2_linear_2102_104531" x1="30.5" y1="11.5" x2="27.5" y2="16" gradientUnits="userSpaceOnUse">
<stop stop-color="#C6E3FF"/>
<stop offset="1" stop-color="#0069FF"/>
</linearGradient>
<linearGradient id="paint3_linear_2102_104531" x1="33.4993" y1="15.5004" x2="32.9993" y2="16.0004" gradientUnits="userSpaceOnUse">
<stop stop-color="#C6E3FF"/>
<stop offset="1" stop-color="#0069FF"/>
</linearGradient>
<linearGradient id="paint4_linear_2102_104531" x1="27.5" y1="8.5" x2="27" y2="9" gradientUnits="userSpaceOnUse">
<stop stop-color="#C6E3FF"/>
<stop offset="1" stop-color="#0069FF"/>
</linearGradient>
<linearGradient id="paint5_linear_2102_104531" x1="33.5005" y1="31.5008" x2="32.5005" y2="32.5008" gradientUnits="userSpaceOnUse">
<stop stop-color="#C6E3FF"/>
<stop offset="1" stop-color="#0069FF"/>
</linearGradient>
<linearGradient id="paint6_linear_2102_104531" x1="8.5" y1="8.49921" x2="8" y2="8.99921" gradientUnits="userSpaceOnUse">
<stop stop-color="#C6E3FF"/>
<stop offset="1" stop-color="#0069FF"/>
</linearGradient>
</defs>
</svg>
