<svg xmlns="http://www.w3.org/2000/svg" viewBox="0 0 124 156" width="124" height="156" fill="none">
  <defs>
    <linearGradient id="paint0_linear_920_1589" x1="-60.4109" y1="141.873" x2="317.476" y2="-15.8378" gradientUnits="userSpaceOnUse">
      <stop offset="0.33" stop-color="#0069FF"/>
      <stop offset="0.72" stop-color="#00A2FF"/>
      <stop offset="0.9" stop-color="#00BFFF"/>
    </linearGradient>
    <linearGradient id="paint1_linear_920_1589" x1="199.964" y1="230.169" x2="10.2181" y2="113.322" gradientUnits="userSpaceOnUse">
      <stop offset="0.22" stop-color="#0069FF"/>
      <stop offset="0.58" stop-color="#00A2FF"/>
      <stop offset="0.75" stop-color="#00BFFF"/>
    </linearGradient>
    <linearGradient id="paint2_linear_920_1589" x1="-14.2221" y1="78.8687" x2="89.0371" y2="158.076" gradientUnits="userSpaceOnUse">
      <stop offset="0.49" stop-color="#7ADCFD"/>
      <stop offset="0.54" stop-color="#89E0FD"/>
      <stop offset="0.64" stop-color="#B1EAFD"/>
      <stop offset="0.77" stop-color="#F2FBFE"/>
      <stop offset="0.8" stop-color="white"/>
    </linearGradient>
    <linearGradient id="paint3_linear_920_1589" x1="59.8796" y1="160.703" x2="39.2654" y2="100.949" gradientUnits="userSpaceOnUse">
      <stop offset="0.02" stop-color="#050B24"/>
      <stop offset="0.1" stop-color="#031340"/>
      <stop offset="0.21" stop-color="#021D66"/>
      <stop offset="0.31" stop-color="#002582"/>
      <stop offset="0.41" stop-color="#002A93"/>
      <stop offset="0.48" stop-color="#002C99"/>
      <stop offset="0.59" stop-color="#002D9C"/>
      <stop offset="0.69" stop-color="#0034A6"/>
      <stop offset="0.78" stop-color="#003EB7"/>
      <stop offset="0.87" stop-color="#004DD0"/>
      <stop offset="0.95" stop-color="#005FEF"/>
      <stop offset="0.98" stop-color="#0069FF"/>
    </linearGradient>
    <linearGradient id="paint4_linear_920_1589" x1="60.1044" y1="98.3754" x2="44.9627" y2="83.2337" gradientUnits="userSpaceOnUse">
      <stop offset="0.12" stop-color="#7ADCFD"/>
      <stop offset="0.23" stop-color="#89E0FD"/>
      <stop offset="0.45" stop-color="#B1EAFD"/>
      <stop offset="0.75" stop-color="#F2FBFE"/>
      <stop offset="0.8" stop-color="white"/>
    </linearGradient>
    <linearGradient id="paint5_linear_920_1589" x1="42.581" y1="135.768" x2="35.0834" y2="105.851" gradientUnits="userSpaceOnUse">
      <stop offset="0.01" stop-color="#7ADCFD"/>
      <stop offset="0.14" stop-color="#89E0FD"/>
      <stop offset="0.39" stop-color="#B1EAFD"/>
      <stop offset="0.74" stop-color="#F2FBFE"/>
      <stop offset="0.8" stop-color="white"/>
    </linearGradient>
    <linearGradient id="paint6_linear_920_1589" x1="58.1379" y1="118.177" x2="54.0877" y2="106.437" gradientUnits="userSpaceOnUse">
      <stop offset="0.02" stop-color="#050B24"/>
      <stop offset="0.17" stop-color="#031340"/>
      <stop offset="0.39" stop-color="#021D66"/>
      <stop offset="0.59" stop-color="#002582"/>
      <stop offset="0.77" stop-color="#002A93"/>
      <stop offset="0.9" stop-color="#002C99"/>
    </linearGradient>
    <linearGradient id="paint7_linear_920_1589" x1="58.3846" y1="133.141" x2="53.4195" y2="118.748" gradientUnits="userSpaceOnUse">
      <stop offset="0.02" stop-color="#050B24"/>
      <stop offset="0.17" stop-color="#031340"/>
      <stop offset="0.39" stop-color="#021D66"/>
      <stop offset="0.59" stop-color="#002582"/>
      <stop offset="0.77" stop-color="#002A93"/>
      <stop offset="0.9" stop-color="#002C99"/>
    </linearGradient>
    <linearGradient id="paint8_linear_920_1589" x1="56.334" y1="145.542" x2="50.071" y2="127.383" gradientUnits="userSpaceOnUse">
      <stop offset="0.02" stop-color="#050B24"/>
      <stop offset="0.17" stop-color="#031340"/>
      <stop offset="0.39" stop-color="#021D66"/>
      <stop offset="0.59" stop-color="#002582"/>
      <stop offset="0.77" stop-color="#002A93"/>
      <stop offset="0.9" stop-color="#002C99"/>
    </linearGradient>
    <linearGradient id="paint9_linear_920_1589" x1="65.269" y1="92.2659" x2="49.4491" y2="76.4459" gradientUnits="userSpaceOnUse">
      <stop offset="0.02" stop-color="#050B24"/>
      <stop offset="0.1" stop-color="#031340"/>
      <stop offset="0.21" stop-color="#021D66"/>
      <stop offset="0.31" stop-color="#002582"/>
      <stop offset="0.41" stop-color="#002A93"/>
      <stop offset="0.48" stop-color="#002C99"/>
      <stop offset="0.59" stop-color="#002D9C"/>
      <stop offset="0.69" stop-color="#0034A6"/>
      <stop offset="0.78" stop-color="#003EB7"/>
      <stop offset="0.87" stop-color="#004DD0"/>
      <stop offset="0.95" stop-color="#005FEF"/>
      <stop offset="0.98" stop-color="#0069FF"/>
    </linearGradient>
    <linearGradient id="paint10_linear_920_1589" x1="145.081" y1="151.261" x2="22.9694" y2="151.261" gradientUnits="userSpaceOnUse">
      <stop offset="0.02" stop-color="#050B24"/>
      <stop offset="0.17" stop-color="#031340"/>
      <stop offset="0.39" stop-color="#021D66"/>
      <stop offset="0.59" stop-color="#002582"/>
      <stop offset="0.77" stop-color="#002A93"/>
      <stop offset="0.9" stop-color="#002C99"/>
    </linearGradient>
  </defs>
  <g>
    <path d="M260.872 -102.827C229.415 -87.8944 201.994 -60.3022 196.19 -25.9734C195.543 -22.1535 195.105 -18.1174 192.886 -14.9419C190.742 -11.8773 187.272 -10.0854 184.088 -8.1225C166.834 2.51603 155.168 21.7176 153.669 41.9338C136.438 40.5513 118.89 39.4484 102.043 43.309C85.1933 47.1708 68.8683 56.7229 60.7393 71.9791C52.3081 87.7994 53.8527 107.156 58.8305 124.374C35.6326 131.041 10.1173 139.482 -1.6156 160.576C-9.12935 174.081 -9.40785 190.261 -12.7548 205.348C-16.1018 220.435 -27.5676 232.919 -39.8336 239.825L337.764 86.3103L260.872 -102.82L260.872 -102.827Z" fill="url(#paint0_linear_920_1589)"/>
    <path d="M-45.3569 222.916C-45.3569 222.916 -25.0332 161.106 48.323 138.762C48.323 138.762 51.2998 74.8142 126.841 41.3211L164.765 148.718L-45.3569 222.916Z" fill="url(#paint1_linear_920_1589)"/>
    <path d="M69.6159 79.5739H43.5486V85.5271L40.0011 100.874C39.6619 102.13 30.2222 137.149 26.4648 150.993H24.9179C22.2829 150.993 19.6967 151.466 17.2324 152.401L9.40053 155.368L4.83801 157.095L134.977 157.1L132.896 147.372C132.398 145.14 130.453 143.583 128.165 143.583H116.737C115.278 143.583 113.909 144.232 112.987 145.362L108.378 150.998H85.6432L84.1476 145.015L83.3522 141.287L83.0399 139.826H82.8496L79.4216 126.114L79.0922 124.794L73.1171 100.893L69.6159 85.9492V85.7442" fill="url(#paint2_linear_920_1589)"/>
    <path d="M26.7075 157.097C26.9808 156.278 41.7931 101.32 41.7931 101.32H71.3201L85.2638 157.092L26.7075 157.097Z" fill="url(#paint3_linear_920_1589)"/>
    <path d="M67.6703 85.7368H45.397L41.7933 101.32H71.3203L67.6703 85.7368Z" fill="white"/>
    <path d="M64.6425 87.8792H48.4883L45.8752 99.1805H67.2898L64.6425 87.8792Z" fill="url(#paint4_linear_920_1589)"/>
    <path d="M45.8748 101.32L32.2288 157.097H39.0506L49.6468 101.32H45.8748Z" fill="url(#paint5_linear_920_1589)"/>
    <path d="M39.0095 111.882H73.9627L74.3872 113.585H38.5581L39.0095 111.882Z" fill="url(#paint6_linear_920_1589)"/>
    <path d="M35.4842 125.235H77.3007L77.9033 127.646H34.8474L35.4842 125.235Z" fill="url(#paint7_linear_920_1589)"/>
    <path d="M30.9035 141.668H81.4083L82.3476 145.428H29.8861L30.9035 141.668Z" fill="url(#paint8_linear_920_1589)"/>
    <path d="M67.7699 81.4208H45.3965V85.7369H67.7699V81.4208Z" fill="url(#paint9_linear_920_1589)"/>
    <path d="M10.0529 157.095L17.8848 154.128C20.1318 153.277 22.5131 152.842 24.9164 152.842H109.252L114.417 146.53C114.986 145.835 115.84 145.43 116.738 145.43H128.166C129.571 145.43 130.786 146.404 131.091 147.775L133.172 157.097H10.0529V157.095Z" fill="url(#paint10_linear_920_1589)"/>
    <path d="M55.6973 107.725H53.7308V109.691H55.6973V107.725Z" fill="#00BFFF"/>
    <path d="M59.3819 107.725H57.4154V109.691H59.3819V107.725Z" fill="white"/>
    <path d="M55.6973 120.654H53.7308V122.62H55.6973V120.654Z" fill="#00BFFF"/>
    <path d="M59.3819 120.654H57.4154V122.62H59.3819V120.654Z" fill="white"/>
    <path d="M55.6973 136.776H53.7308V138.743H55.6973V136.776Z" fill="#00BFFF"/>
    <path d="M59.3819 136.776H57.4154V138.743H59.3819V136.776Z" fill="white"/>
    <path d="M55.6973 149.046H53.7308V151.013H55.6973V149.046Z" fill="#00BFFF"/>
    <path d="M59.3819 149.046H57.4154V151.013H59.3819V149.046Z" fill="white"/>
    <path d="M89.0249 73.562C59.7882 75.3333 58.3536 76.7704 56.5798 106.007C54.8085 76.7704 53.3714 75.3358 24.1348 73.562C53.3714 71.7907 54.8061 70.3536 56.5798 41.1169C58.3512 70.3536 59.7882 71.7882 89.0249 73.562Z" fill="white"/>
    <path d="M116.067 21.491C116.067 21.491 110.452 16.6306 98.48 16.7966C86.5077 16.6306 80.8931 21.491 80.8931 21.491C69.8548 21.5794 64.7827 27.7681 64.7827 27.7681H132.174C132.174 27.7681 127.102 21.5767 116.064 21.491H116.067Z" fill="white"/>
    <path d="M36.5117 41.0929C36.5117 41.0929 33.7044 38.6627 27.7183 38.7457C21.7321 38.6627 18.9248 41.0929 18.9248 41.0929C13.4057 41.1371 10.8696 44.2315 10.8696 44.2315H44.5653C44.5653 44.2315 42.0292 41.1358 36.51 41.0929H36.5117Z" fill="white"/>
  </g>
</svg>
